  0
SECTION
  2
BLOCKS
  0
ENDSEC
  0
SECTION
  2
ENTITIES
  0
LINE
  8
0
 10
49.35
 20
33.85
 11
-49.35
 21
33.85
  0
LINE
  8
0
 10
-49.35
 20
33.85
 11
-49.35
 21
-33.85
  0
LINE
  8
0
 10
-49.35
 20
-33.85
 11
49.35
 21
-33.85
  0
LINE
  8
0
 10
49.35
 20
-33.85
 11
49.35
 21
33.85
  0
LINE
  8
0
 10
-49.25
 20
-33.75
 11
-49.25
 21
33.75
  0
LINE
  8
0
 10
-49.25
 20
33.75
 11
49.25
 21
33.75
  0
LINE
  8
0
 10
49.25
 20
33.75
 11
49.25
 21
-33.75
  0
LINE
  8
0
 10
49.25
 20
-33.75
 11
-49.25
 21
-33.75
  0
LINE
  8
0
 10
48
 20
32.5
 11
-48
 21
32.5
  0
LINE
  8
0
 10
-48
 20
32.5
 11
-48
 21
-32.5
  0
LINE
  8
0
 10
-48
 20
-32.5
 11
48
 21
-32.5
  0
LINE
  8
0
 10
48
 20
-32.5
 11
48
 21
32.5
  0
LINE
  8
0
 10
-47.9
 20
-32.4
 11
-47.9
 21
32.4
  0
LINE
  8
0
 10
-47.9
 20
32.4
 11
47.9
 21
32.4
  0
LINE
  8
0
 10
47.9
 20
32.4
 11
47.9
 21
-32.4
  0
LINE
  8
0
 10
47.9
 20
-32.4
 11
-47.9
 21
-32.4
  0
LINE
  8
0
 10
46
 20
30.5
 11
-46
 21
30.5
  0
LINE
  8
0
 10
-46
 20
30.5
 11
-46
 21
-22.5
  0
LINE
  8
0
 10
-46
 20
-22.5
 11
46
 21
-22.5
  0
LINE
  8
0
 10
46
 20
-22.5
 11
46
 21
30.5
  0
LINE
  8
0
 10
-45.9
 20
-22.4
 11
-45.9
 21
30.4
  0
LINE
  8
0
 10
-45.9
 20
30.4
 11
45.9
 21
30.4
  0
LINE
  8
0
 10
45.9
 20
30.4
 11
45.9
 21
-22.4
  0
LINE
  8
0
 10
45.9
 20
-22.4
 11
-45.9
 21
-22.4
  0
LINE
  8
0
 10
41.9875
 20
27.7375
 11
-41.9875
 21
27.7375
  0
LINE
  8
0
 10
-41.9875
 20
27.7375
 11
-41.9875
 21
-17.0375
  0
LINE
  8
0
 10
-41.9875
 20
-17.0375
 11
41.9875
 21
-17.0375
  0
LINE
  8
0
 10
41.9875
 20
-17.0375
 11
41.9875
 21
27.7375
  0
LINE
  8
0
 10
-41.8875
 20
-16.9375
 11
-41.8875
 21
27.6375
  0
LINE
  8
0
 10
-41.8875
 20
27.6375
 11
41.8875
 21
27.6375
  0
LINE
  8
0
 10
41.8875
 20
27.6375
 11
41.8875
 21
-16.9375
  0
LINE
  8
0
 10
41.8875
 20
-16.9375
 11
-41.8875
 21
-16.9375
  0
ENDSEC
  0
SECTION
  2
OBJECTS
  0
DICTIONARY
  0
ENDSEC
  0
EOF
