  0
SECTION
  2
BLOCKS
  0
ENDSEC
  0
SECTION
  2
ENTITIES
  0
LINE
  8
0
 10
49.85
 20
34.35
 11
-49.85
 21
34.35
  0
LINE
  8
0
 10
-49.85
 20
34.35
 11
-49.85
 21
-34.35
  0
LINE
  8
0
 10
-49.85
 20
-34.35
 11
49.85
 21
-34.35
  0
LINE
  8
0
 10
49.85
 20
-34.35
 11
49.85
 21
34.35
  0
LINE
  8
0
 10
-49.75
 20
-34.25
 11
-49.75
 21
34.25
  0
LINE
  8
0
 10
-49.75
 20
34.25
 11
49.75
 21
34.25
  0
LINE
  8
0
 10
49.75
 20
34.25
 11
49.75
 21
-34.25
  0
LINE
  8
0
 10
49.75
 20
-34.25
 11
-49.75
 21
-34.25
  0
LINE
  8
0
 10
49.35
 20
33.85
 11
-49.35
 21
33.85
  0
LINE
  8
0
 10
-49.35
 20
33.85
 11
-49.35
 21
-33.85
  0
LINE
  8
0
 10
-49.35
 20
-33.85
 11
49.35
 21
-33.85
  0
LINE
  8
0
 10
49.35
 20
-33.85
 11
49.35
 21
33.85
  0
LINE
  8
0
 10
-49.25
 20
-33.75
 11
-49.25
 21
33.75
  0
LINE
  8
0
 10
-49.25
 20
33.75
 11
49.25
 21
33.75
  0
LINE
  8
0
 10
49.25
 20
33.75
 11
49.25
 21
-33.75
  0
LINE
  8
0
 10
49.25
 20
-33.75
 11
-49.25
 21
-33.75
  0
LINE
  8
0
 10
47.6761
 20
-32.3846
 11
47.8261
 21
-32.3391
  0
LINE
  8
0
 10
47.8261
 20
-32.3391
 11
47.9645
 21
-32.2652
  0
LINE
  8
0
 10
47.9645
 20
-32.2652
 11
48.0857
 21
-32.1657
  0
LINE
  8
0
 10
48.0857
 20
-32.1657
 11
48.1852
 21
-32.0445
  0
LINE
  8
0
 10
48.1852
 20
-32.0445
 11
48.2591
 21
-31.9062
  0
LINE
  8
0
 10
48.2591
 20
-31.9062
 11
48.3046
 21
-31.7561
  0
LINE
  8
0
 10
48.3046
 20
-31.7561
 11
48.32
 21
-31.6
  0
LINE
  8
0
 10
48.32
 20
-31.6
 11
48.3046
 21
-31.4439
  0
LINE
  8
0
 10
48.3046
 20
-31.4439
 11
48.2591
 21
-31.2939
  0
LINE
  8
0
 10
48.2591
 20
-31.2939
 11
48.1852
 21
-31.1556
  0
LINE
  8
0
 10
48.1852
 20
-31.1556
 11
48.0857
 21
-31.0343
  0
LINE
  8
0
 10
48.0857
 20
-31.0343
 11
47.9645
 21
-30.9348
  0
LINE
  8
0
 10
47.9645
 20
-30.9348
 11
47.8261
 21
-30.8609
  0
LINE
  8
0
 10
47.8261
 20
-30.8609
 11
47.6761
 21
-30.8154
  0
LINE
  8
0
 10
47.6761
 20
-30.8154
 11
47.52
 21
-30.8
  0
LINE
  8
0
 10
47.52
 20
-30.8
 11
47.3639
 21
-30.8154
  0
LINE
  8
0
 10
47.3639
 20
-30.8154
 11
47.2138
 21
-30.8609
  0
LINE
  8
0
 10
47.2138
 20
-30.8609
 11
47.0755
 21
-30.9348
  0
LINE
  8
0
 10
47.0755
 20
-30.9348
 11
46.9543
 21
-31.0343
  0
LINE
  8
0
 10
46.9543
 20
-31.0343
 11
46.8548
 21
-31.1556
  0
LINE
  8
0
 10
46.8548
 20
-31.1556
 11
46.7809
 21
-31.2939
  0
LINE
  8
0
 10
46.7809
 20
-31.2939
 11
46.7354
 21
-31.4439
  0
LINE
  8
0
 10
46.7354
 20
-31.4439
 11
46.72
 21
-31.6
  0
LINE
  8
0
 10
46.72
 20
-31.6
 11
46.7354
 21
-31.7561
  0
LINE
  8
0
 10
46.7354
 20
-31.7561
 11
46.7809
 21
-31.9062
  0
LINE
  8
0
 10
46.7809
 20
-31.9062
 11
46.8548
 21
-32.0445
  0
LINE
  8
0
 10
46.8548
 20
-32.0445
 11
46.9543
 21
-32.1657
  0
LINE
  8
0
 10
46.9543
 20
-32.1657
 11
47.0755
 21
-32.2652
  0
LINE
  8
0
 10
47.0755
 20
-32.2652
 11
47.2138
 21
-32.3391
  0
LINE
  8
0
 10
47.2138
 20
-32.3391
 11
47.3639
 21
-32.3846
  0
LINE
  8
0
 10
47.3639
 20
-32.3846
 11
47.52
 21
-32.4
  0
LINE
  8
0
 10
47.52
 20
-32.4
 11
47.6761
 21
-32.3846
  0
LINE
  8
0
 10
-47.3639
 20
-32.3846
 11
-47.2139
 21
-32.3391
  0
LINE
  8
0
 10
-47.2139
 20
-32.3391
 11
-47.0756
 21
-32.2652
  0
LINE
  8
0
 10
-47.0756
 20
-32.2652
 11
-46.9543
 21
-32.1657
  0
LINE
  8
0
 10
-46.9543
 20
-32.1657
 11
-46.8548
 21
-32.0445
  0
LINE
  8
0
 10
-46.8548
 20
-32.0445
 11
-46.7809
 21
-31.9062
  0
LINE
  8
0
 10
-46.7809
 20
-31.9062
 11
-46.7354
 21
-31.7561
  0
LINE
  8
0
 10
-46.7354
 20
-31.7561
 11
-46.72
 21
-31.6
  0
LINE
  8
0
 10
-46.72
 20
-31.6
 11
-46.7354
 21
-31.4439
  0
LINE
  8
0
 10
-46.7354
 20
-31.4439
 11
-46.7809
 21
-31.2939
  0
LINE
  8
0
 10
-46.7809
 20
-31.2939
 11
-46.8548
 21
-31.1556
  0
LINE
  8
0
 10
-46.8548
 20
-31.1556
 11
-46.9543
 21
-31.0343
  0
LINE
  8
0
 10
-46.9543
 20
-31.0343
 11
-47.0756
 21
-30.9348
  0
LINE
  8
0
 10
-47.0756
 20
-30.9348
 11
-47.2139
 21
-30.8609
  0
LINE
  8
0
 10
-47.2139
 20
-30.8609
 11
-47.3639
 21
-30.8154
  0
LINE
  8
0
 10
-47.3639
 20
-30.8154
 11
-47.52
 21
-30.8
  0
LINE
  8
0
 10
-47.52
 20
-30.8
 11
-47.6761
 21
-30.8154
  0
LINE
  8
0
 10
-47.6761
 20
-30.8154
 11
-47.8262
 21
-30.8609
  0
LINE
  8
0
 10
-47.8262
 20
-30.8609
 11
-47.9645
 21
-30.9348
  0
LINE
  8
0
 10
-47.9645
 20
-30.9348
 11
-48.0857
 21
-31.0343
  0
LINE
  8
0
 10
-48.0857
 20
-31.0343
 11
-48.1852
 21
-31.1556
  0
LINE
  8
0
 10
-48.1852
 20
-31.1556
 11
-48.2591
 21
-31.2939
  0
LINE
  8
0
 10
-48.2591
 20
-31.2939
 11
-48.3046
 21
-31.4439
  0
LINE
  8
0
 10
-48.3046
 20
-31.4439
 11
-48.32
 21
-31.6
  0
LINE
  8
0
 10
-48.32
 20
-31.6
 11
-48.3046
 21
-31.7561
  0
LINE
  8
0
 10
-48.3046
 20
-31.7561
 11
-48.2591
 21
-31.9062
  0
LINE
  8
0
 10
-48.2591
 20
-31.9062
 11
-48.1852
 21
-32.0445
  0
LINE
  8
0
 10
-48.1852
 20
-32.0445
 11
-48.0857
 21
-32.1657
  0
LINE
  8
0
 10
-48.0857
 20
-32.1657
 11
-47.9645
 21
-32.2652
  0
LINE
  8
0
 10
-47.9645
 20
-32.2652
 11
-47.8262
 21
-32.3391
  0
LINE
  8
0
 10
-47.8262
 20
-32.3391
 11
-47.6761
 21
-32.3846
  0
LINE
  8
0
 10
-47.6761
 20
-32.3846
 11
-47.52
 21
-32.4
  0
LINE
  8
0
 10
-47.52
 20
-32.4
 11
-47.3639
 21
-32.3846
  0
LINE
  8
0
 10
30.7475
 20
-32.0904
 11
30.8413
 21
-32.0619
  0
LINE
  8
0
 10
30.8413
 20
-32.0619
 11
30.9278
 21
-32.0157
  0
LINE
  8
0
 10
30.9278
 20
-32.0157
 11
31.0035
 21
-31.9535
  0
LINE
  8
0
 10
31.0035
 20
-31.9535
 11
31.0657
 21
-31.8778
  0
LINE
  8
0
 10
31.0657
 20
-31.8778
 11
31.1119
 21
-31.7913
  0
LINE
  8
0
 10
31.1119
 20
-31.7913
 11
31.1404
 21
-31.6975
  0
LINE
  8
0
 10
31.1404
 20
-31.6975
 11
31.15
 21
-31.6
  0
LINE
  8
0
 10
31.15
 20
-31.6
 11
31.1404
 21
-31.5025
  0
LINE
  8
0
 10
31.1404
 20
-31.5025
 11
31.1119
 21
-31.4087
  0
LINE
  8
0
 10
31.1119
 20
-31.4087
 11
31.0657
 21
-31.3222
  0
LINE
  8
0
 10
31.0657
 20
-31.3222
 11
31.0035
 21
-31.2465
  0
LINE
  8
0
 10
31.0035
 20
-31.2465
 11
30.9278
 21
-31.1843
  0
LINE
  8
0
 10
30.9278
 20
-31.1843
 11
30.8413
 21
-31.1381
  0
LINE
  8
0
 10
30.8413
 20
-31.1381
 11
30.7475
 21
-31.1096
  0
LINE
  8
0
 10
30.7475
 20
-31.1096
 11
30.65
 21
-31.1
  0
LINE
  8
0
 10
30.65
 20
-31.1
 11
29.35
 21
-31.1
  0
LINE
  8
0
 10
29.35
 20
-31.1
 11
29.2524
 21
-31.1096
  0
LINE
  8
0
 10
29.2524
 20
-31.1096
 11
29.1587
 21
-31.1381
  0
LINE
  8
0
 10
29.1587
 20
-31.1381
 11
29.0722
 21
-31.1843
  0
LINE
  8
0
 10
29.0722
 20
-31.1843
 11
28.9965
 21
-31.2465
  0
LINE
  8
0
 10
28.9965
 20
-31.2465
 11
28.9343
 21
-31.3222
  0
LINE
  8
0
 10
28.9343
 20
-31.3222
 11
28.8881
 21
-31.4087
  0
LINE
  8
0
 10
28.8881
 20
-31.4087
 11
28.8596
 21
-31.5025
  0
LINE
  8
0
 10
28.8596
 20
-31.5025
 11
28.85
 21
-31.6
  0
LINE
  8
0
 10
28.85
 20
-31.6
 11
28.8596
 21
-31.6975
  0
LINE
  8
0
 10
28.8596
 20
-31.6975
 11
28.8881
 21
-31.7913
  0
LINE
  8
0
 10
28.8881
 20
-31.7913
 11
28.9343
 21
-31.8778
  0
LINE
  8
0
 10
28.9343
 20
-31.8778
 11
28.9965
 21
-31.9535
  0
LINE
  8
0
 10
28.9965
 20
-31.9535
 11
29.0722
 21
-32.0157
  0
LINE
  8
0
 10
29.0722
 20
-32.0157
 11
29.1587
 21
-32.0619
  0
LINE
  8
0
 10
29.1587
 20
-32.0619
 11
29.2524
 21
-32.0904
  0
LINE
  8
0
 10
29.2524
 20
-32.0904
 11
29.35
 21
-32.1
  0
LINE
  8
0
 10
29.35
 20
-32.1
 11
30.65
 21
-32.1
  0
LINE
  8
0
 10
30.65
 20
-32.1
 11
30.7475
 21
-32.0904
  0
LINE
  8
0
 10
-29.2525
 20
-32.0904
 11
-29.1587
 21
-32.0619
  0
LINE
  8
0
 10
-29.1587
 20
-32.0619
 11
-29.0722
 21
-32.0157
  0
LINE
  8
0
 10
-29.0722
 20
-32.0157
 11
-28.9965
 21
-31.9535
  0
LINE
  8
0
 10
-28.9965
 20
-31.9535
 11
-28.9343
 21
-31.8778
  0
LINE
  8
0
 10
-28.9343
 20
-31.8778
 11
-28.8881
 21
-31.7913
  0
LINE
  8
0
 10
-28.8881
 20
-31.7913
 11
-28.8596
 21
-31.6975
  0
LINE
  8
0
 10
-28.8596
 20
-31.6975
 11
-28.85
 21
-31.6
  0
LINE
  8
0
 10
-28.85
 20
-31.6
 11
-28.8596
 21
-31.5025
  0
LINE
  8
0
 10
-28.8596
 20
-31.5025
 11
-28.8881
 21
-31.4087
  0
LINE
  8
0
 10
-28.8881
 20
-31.4087
 11
-28.9343
 21
-31.3222
  0
LINE
  8
0
 10
-28.9343
 20
-31.3222
 11
-28.9965
 21
-31.2465
  0
LINE
  8
0
 10
-28.9965
 20
-31.2465
 11
-29.0722
 21
-31.1843
  0
LINE
  8
0
 10
-29.0722
 20
-31.1843
 11
-29.1587
 21
-31.1381
  0
LINE
  8
0
 10
-29.1587
 20
-31.1381
 11
-29.2525
 21
-31.1096
  0
LINE
  8
0
 10
-29.2525
 20
-31.1096
 11
-29.35
 21
-31.1
  0
LINE
  8
0
 10
-29.35
 20
-31.1
 11
-30.65
 21
-31.1
  0
LINE
  8
0
 10
-30.65
 20
-31.1
 11
-30.7476
 21
-31.1096
  0
LINE
  8
0
 10
-30.7476
 20
-31.1096
 11
-30.8413
 21
-31.1381
  0
LINE
  8
0
 10
-30.8413
 20
-31.1381
 11
-30.9278
 21
-31.1843
  0
LINE
  8
0
 10
-30.9278
 20
-31.1843
 11
-31.0035
 21
-31.2465
  0
LINE
  8
0
 10
-31.0035
 20
-31.2465
 11
-31.0657
 21
-31.3222
  0
LINE
  8
0
 10
-31.0657
 20
-31.3222
 11
-31.1119
 21
-31.4087
  0
LINE
  8
0
 10
-31.1119
 20
-31.4087
 11
-31.1404
 21
-31.5025
  0
LINE
  8
0
 10
-31.1404
 20
-31.5025
 11
-31.15
 21
-31.6
  0
LINE
  8
0
 10
-31.15
 20
-31.6
 11
-31.1404
 21
-31.6975
  0
LINE
  8
0
 10
-31.1404
 20
-31.6975
 11
-31.1119
 21
-31.7913
  0
LINE
  8
0
 10
-31.1119
 20
-31.7913
 11
-31.0657
 21
-31.8778
  0
LINE
  8
0
 10
-31.0657
 20
-31.8778
 11
-31.0035
 21
-31.9535
  0
LINE
  8
0
 10
-31.0035
 20
-31.9535
 11
-30.9278
 21
-32.0157
  0
LINE
  8
0
 10
-30.9278
 20
-32.0157
 11
-30.8413
 21
-32.0619
  0
LINE
  8
0
 10
-30.8413
 20
-32.0619
 11
-30.7476
 21
-32.0904
  0
LINE
  8
0
 10
-30.7476
 20
-32.0904
 11
-30.65
 21
-32.1
  0
LINE
  8
0
 10
-30.65
 20
-32.1
 11
-29.35
 21
-32.1
  0
LINE
  8
0
 10
-29.35
 20
-32.1
 11
-29.2525
 21
-32.0904
  0
LINE
  8
0
 10
-2.45222
 20
-33.0664
 11
-2.36781
 21
-33.0408
  0
LINE
  8
0
 10
-2.36781
 20
-33.0408
 11
-2.29
 21
-32.9992
  0
LINE
  8
0
 10
-2.29
 20
-32.9992
 11
-2.22181
 21
-32.9432
  0
LINE
  8
0
 10
-2.22181
 20
-32.9432
 11
-2.16584
 21
-32.875
  0
LINE
  8
0
 10
-2.16584
 20
-32.875
 11
-2.12426
 21
-32.7972
  0
LINE
  8
0
 10
-2.12426
 20
-32.7972
 11
-2.09866
 21
-32.7128
  0
LINE
  8
0
 10
-2.09866
 20
-32.7128
 11
-2.09001
 21
-32.625
  0
LINE
  8
0
 10
-2.09001
 20
-32.625
 11
-2.09866
 21
-32.5372
  0
LINE
  8
0
 10
-2.09866
 20
-32.5372
 11
-2.12426
 21
-32.4528
  0
LINE
  8
0
 10
-2.12426
 20
-32.4528
 11
-2.16584
 21
-32.375
  0
LINE
  8
0
 10
-2.16584
 20
-32.375
 11
-2.22181
 21
-32.3068
  0
LINE
  8
0
 10
-2.22181
 20
-32.3068
 11
-2.29
 21
-32.2508
  0
LINE
  8
0
 10
-2.29
 20
-32.2508
 11
-2.36781
 21
-32.2093
  0
LINE
  8
0
 10
-2.36781
 20
-32.2093
 11
-2.45222
 21
-32.1836
  0
LINE
  8
0
 10
-2.45222
 20
-32.1836
 11
-2.54
 21
-32.175
  0
LINE
  8
0
 10
-2.54
 20
-32.175
 11
-2.6278
 21
-32.1836
  0
LINE
  8
0
 10
-2.6278
 20
-32.1836
 11
-2.71221
 21
-32.2093
  0
LINE
  8
0
 10
-2.71221
 20
-32.2093
 11
-2.79002
 21
-32.2508
  0
LINE
  8
0
 10
-2.79002
 20
-32.2508
 11
-2.85821
 21
-32.3068
  0
LINE
  8
0
 10
-2.85821
 20
-32.3068
 11
-2.91416
 21
-32.375
  0
LINE
  8
0
 10
-2.91416
 20
-32.375
 11
-2.95576
 21
-32.4528
  0
LINE
  8
0
 10
-2.95576
 20
-32.4528
 11
-2.98136
 21
-32.5372
  0
LINE
  8
0
 10
-2.98136
 20
-32.5372
 11
-2.99001
 21
-32.625
  0
LINE
  8
0
 10
-2.99001
 20
-32.625
 11
-2.98136
 21
-32.7128
  0
LINE
  8
0
 10
-2.98136
 20
-32.7128
 11
-2.95576
 21
-32.7972
  0
LINE
  8
0
 10
-2.95576
 20
-32.7972
 11
-2.91416
 21
-32.875
  0
LINE
  8
0
 10
-2.91416
 20
-32.875
 11
-2.85821
 21
-32.9432
  0
LINE
  8
0
 10
-2.85821
 20
-32.9432
 11
-2.79002
 21
-32.9992
  0
LINE
  8
0
 10
-2.79002
 20
-32.9992
 11
-2.71221
 21
-33.0408
  0
LINE
  8
0
 10
-2.71221
 20
-33.0408
 11
-2.6278
 21
-33.0664
  0
LINE
  8
0
 10
-2.6278
 20
-33.0664
 11
-2.54
 21
-33.075
  0
LINE
  8
0
 10
-2.54
 20
-33.075
 11
-2.45222
 21
-33.0664
  0
LINE
  8
0
 10
0.0877899
 20
-33.0664
 11
0.172202
 21
-33.0408
  0
LINE
  8
0
 10
0.172202
 20
-33.0408
 11
0.250006
 21
-32.9992
  0
LINE
  8
0
 10
0.250006
 20
-32.9992
 11
0.318198
 21
-32.9432
  0
LINE
  8
0
 10
0.318198
 20
-32.9432
 11
0.374152
 21
-32.875
  0
LINE
  8
0
 10
0.374152
 20
-32.875
 11
0.415732
 21
-32.7972
  0
LINE
  8
0
 10
0.415732
 20
-32.7972
 11
0.441351
 21
-32.7128
  0
LINE
  8
0
 10
0.441351
 20
-32.7128
 11
0.449988
 21
-32.625
  0
LINE
  8
0
 10
0.449988
 20
-32.625
 11
0.441351
 21
-32.5372
  0
LINE
  8
0
 10
0.441351
 20
-32.5372
 11
0.415732
 21
-32.4528
  0
LINE
  8
0
 10
0.415732
 20
-32.4528
 11
0.374152
 21
-32.375
  0
LINE
  8
0
 10
0.374152
 20
-32.375
 11
0.318198
 21
-32.3068
  0
LINE
  8
0
 10
0.318198
 20
-32.3068
 11
0.250006
 21
-32.2508
  0
LINE
  8
0
 10
0.250006
 20
-32.2508
 11
0.172202
 21
-32.2093
  0
LINE
  8
0
 10
0.172202
 20
-32.2093
 11
0.0877899
 21
-32.1836
  0
LINE
  8
0
 10
0.0877899
 20
-32.1836
 11
-9.15527e-06
 21
-32.175
  0
LINE
  8
0
 10
-9.15527e-06
 20
-32.175
 11
-0.087793
 21
-32.1836
  0
LINE
  8
0
 10
-0.087793
 20
-32.1836
 11
-0.17222
 21
-32.2093
  0
LINE
  8
0
 10
-0.17222
 20
-32.2093
 11
-0.250009
 21
-32.2508
  0
LINE
  8
0
 10
-0.250009
 20
-32.2508
 11
-0.318201
 21
-32.3068
  0
LINE
  8
0
 10
-0.318201
 20
-32.3068
 11
-0.37417
 21
-32.375
  0
LINE
  8
0
 10
-0.37417
 20
-32.375
 11
-0.41575
 21
-32.4528
  0
LINE
  8
0
 10
-0.41575
 20
-32.4528
 11
-0.441354
 21
-32.5372
  0
LINE
  8
0
 10
-0.441354
 20
-32.5372
 11
-0.450006
 21
-32.625
  0
LINE
  8
0
 10
-0.450006
 20
-32.625
 11
-0.441354
 21
-32.7128
  0
LINE
  8
0
 10
-0.441354
 20
-32.7128
 11
-0.41575
 21
-32.7972
  0
LINE
  8
0
 10
-0.41575
 20
-32.7972
 11
-0.37417
 21
-32.875
  0
LINE
  8
0
 10
-0.37417
 20
-32.875
 11
-0.318201
 21
-32.9432
  0
LINE
  8
0
 10
-0.318201
 20
-32.9432
 11
-0.250009
 21
-32.9992
  0
LINE
  8
0
 10
-0.250009
 20
-32.9992
 11
-0.17222
 21
-33.0408
  0
LINE
  8
0
 10
-0.17222
 20
-33.0408
 11
-0.087793
 21
-33.0664
  0
LINE
  8
0
 10
-0.087793
 20
-33.0664
 11
-9.15527e-06
 21
-33.075
  0
LINE
  8
0
 10
-9.15527e-06
 20
-33.075
 11
0.0877899
 21
-33.0664
  0
LINE
  8
0
 10
14.0578
 20
-33.0664
 11
14.1422
 21
-33.0408
  0
LINE
  8
0
 10
14.1422
 20
-33.0408
 11
14.22
 21
-32.9992
  0
LINE
  8
0
 10
14.22
 20
-32.9992
 11
14.2882
 21
-32.9432
  0
LINE
  8
0
 10
14.2882
 20
-32.9432
 11
14.3442
 21
-32.875
  0
LINE
  8
0
 10
14.3442
 20
-32.875
 11
14.3857
 21
-32.7972
  0
LINE
  8
0
 10
14.3857
 20
-32.7972
 11
14.4114
 21
-32.7128
  0
LINE
  8
0
 10
14.4114
 20
-32.7128
 11
14.42
 21
-32.625
  0
LINE
  8
0
 10
14.42
 20
-32.625
 11
14.4114
 21
-32.5372
  0
LINE
  8
0
 10
14.4114
 20
-32.5372
 11
14.3857
 21
-32.4528
  0
LINE
  8
0
 10
14.3857
 20
-32.4528
 11
14.3442
 21
-32.375
  0
LINE
  8
0
 10
14.3442
 20
-32.375
 11
14.2882
 21
-32.3068
  0
LINE
  8
0
 10
14.2882
 20
-32.3068
 11
14.22
 21
-32.2508
  0
LINE
  8
0
 10
14.22
 20
-32.2508
 11
14.1422
 21
-32.2093
  0
LINE
  8
0
 10
14.1422
 20
-32.2093
 11
14.0578
 21
-32.1836
  0
LINE
  8
0
 10
14.0578
 20
-32.1836
 11
13.97
 21
-32.175
  0
LINE
  8
0
 10
13.97
 20
-32.175
 11
13.8822
 21
-32.1836
  0
LINE
  8
0
 10
13.8822
 20
-32.1836
 11
13.7978
 21
-32.2093
  0
LINE
  8
0
 10
13.7978
 20
-32.2093
 11
13.72
 21
-32.2508
  0
LINE
  8
0
 10
13.72
 20
-32.2508
 11
13.6518
 21
-32.3068
  0
LINE
  8
0
 10
13.6518
 20
-32.3068
 11
13.5958
 21
-32.375
  0
LINE
  8
0
 10
13.5958
 20
-32.375
 11
13.5543
 21
-32.4528
  0
LINE
  8
0
 10
13.5543
 20
-32.4528
 11
13.5286
 21
-32.5372
  0
LINE
  8
0
 10
13.5286
 20
-32.5372
 11
13.52
 21
-32.625
  0
LINE
  8
0
 10
13.52
 20
-32.625
 11
13.5286
 21
-32.7128
  0
LINE
  8
0
 10
13.5286
 20
-32.7128
 11
13.5543
 21
-32.7972
  0
LINE
  8
0
 10
13.5543
 20
-32.7972
 11
13.5958
 21
-32.875
  0
LINE
  8
0
 10
13.5958
 20
-32.875
 11
13.6518
 21
-32.9432
  0
LINE
  8
0
 10
13.6518
 20
-32.9432
 11
13.72
 21
-32.9992
  0
LINE
  8
0
 10
13.72
 20
-32.9992
 11
13.7978
 21
-33.0408
  0
LINE
  8
0
 10
13.7978
 20
-33.0408
 11
13.8822
 21
-33.0664
  0
LINE
  8
0
 10
13.8822
 20
-33.0664
 11
13.97
 21
-33.075
  0
LINE
  8
0
 10
13.97
 20
-33.075
 11
14.0578
 21
-33.0664
  0
LINE
  8
0
 10
-12.6122
 20
-33.0664
 11
-12.5278
 21
-33.0408
  0
LINE
  8
0
 10
-12.5278
 20
-33.0408
 11
-12.45
 21
-32.9992
  0
LINE
  8
0
 10
-12.45
 20
-32.9992
 11
-12.3818
 21
-32.9432
  0
LINE
  8
0
 10
-12.3818
 20
-32.9432
 11
-12.3258
 21
-32.875
  0
LINE
  8
0
 10
-12.3258
 20
-32.875
 11
-12.2843
 21
-32.7972
  0
LINE
  8
0
 10
-12.2843
 20
-32.7972
 11
-12.2587
 21
-32.7128
  0
LINE
  8
0
 10
-12.2587
 20
-32.7128
 11
-12.25
 21
-32.625
  0
LINE
  8
0
 10
-12.25
 20
-32.625
 11
-12.2587
 21
-32.5372
  0
LINE
  8
0
 10
-12.2587
 20
-32.5372
 11
-12.2843
 21
-32.4528
  0
LINE
  8
0
 10
-12.2843
 20
-32.4528
 11
-12.3258
 21
-32.375
  0
LINE
  8
0
 10
-12.3258
 20
-32.375
 11
-12.3818
 21
-32.3068
  0
LINE
  8
0
 10
-12.3818
 20
-32.3068
 11
-12.45
 21
-32.2508
  0
LINE
  8
0
 10
-12.45
 20
-32.2508
 11
-12.5278
 21
-32.2093
  0
LINE
  8
0
 10
-12.5278
 20
-32.2093
 11
-12.6122
 21
-32.1836
  0
LINE
  8
0
 10
-12.6122
 20
-32.1836
 11
-12.7
 21
-32.175
  0
LINE
  8
0
 10
-12.7
 20
-32.175
 11
-12.7878
 21
-32.1836
  0
LINE
  8
0
 10
-12.7878
 20
-32.1836
 11
-12.8722
 21
-32.2093
  0
LINE
  8
0
 10
-12.8722
 20
-32.2093
 11
-12.95
 21
-32.2508
  0
LINE
  8
0
 10
-12.95
 20
-32.2508
 11
-13.0182
 21
-32.3068
  0
LINE
  8
0
 10
-13.0182
 20
-32.3068
 11
-13.0742
 21
-32.375
  0
LINE
  8
0
 10
-13.0742
 20
-32.375
 11
-13.1157
 21
-32.4528
  0
LINE
  8
0
 10
-13.1157
 20
-32.4528
 11
-13.1414
 21
-32.5372
  0
LINE
  8
0
 10
-13.1414
 20
-32.5372
 11
-13.15
 21
-32.625
  0
LINE
  8
0
 10
-13.15
 20
-32.625
 11
-13.1414
 21
-32.7128
  0
LINE
  8
0
 10
-13.1414
 20
-32.7128
 11
-13.1157
 21
-32.7972
  0
LINE
  8
0
 10
-13.1157
 20
-32.7972
 11
-13.0742
 21
-32.875
  0
LINE
  8
0
 10
-13.0742
 20
-32.875
 11
-13.0182
 21
-32.9432
  0
LINE
  8
0
 10
-13.0182
 20
-32.9432
 11
-12.95
 21
-32.9992
  0
LINE
  8
0
 10
-12.95
 20
-32.9992
 11
-12.8722
 21
-33.0408
  0
LINE
  8
0
 10
-12.8722
 20
-33.0408
 11
-12.7878
 21
-33.0664
  0
LINE
  8
0
 10
-12.7878
 20
-33.0664
 11
-12.7
 21
-33.075
  0
LINE
  8
0
 10
-12.7
 20
-33.075
 11
-12.6122
 21
-33.0664
  0
LINE
  8
0
 10
-11.3422
 20
-33.0664
 11
-11.2578
 21
-33.0408
  0
LINE
  8
0
 10
-11.2578
 20
-33.0408
 11
-11.18
 21
-32.9992
  0
LINE
  8
0
 10
-11.18
 20
-32.9992
 11
-11.1118
 21
-32.9432
  0
LINE
  8
0
 10
-11.1118
 20
-32.9432
 11
-11.0558
 21
-32.875
  0
LINE
  8
0
 10
-11.0558
 20
-32.875
 11
-11.0143
 21
-32.7972
  0
LINE
  8
0
 10
-11.0143
 20
-32.7972
 11
-10.9887
 21
-32.7128
  0
LINE
  8
0
 10
-10.9887
 20
-32.7128
 11
-10.98
 21
-32.625
  0
LINE
  8
0
 10
-10.98
 20
-32.625
 11
-10.9887
 21
-32.5372
  0
LINE
  8
0
 10
-10.9887
 20
-32.5372
 11
-11.0143
 21
-32.4528
  0
LINE
  8
0
 10
-11.0143
 20
-32.4528
 11
-11.0558
 21
-32.375
  0
LINE
  8
0
 10
-11.0558
 20
-32.375
 11
-11.1118
 21
-32.3068
  0
LINE
  8
0
 10
-11.1118
 20
-32.3068
 11
-11.18
 21
-32.2508
  0
LINE
  8
0
 10
-11.18
 20
-32.2508
 11
-11.2578
 21
-32.2093
  0
LINE
  8
0
 10
-11.2578
 20
-32.2093
 11
-11.3422
 21
-32.1836
  0
LINE
  8
0
 10
-11.3422
 20
-32.1836
 11
-11.43
 21
-32.175
  0
LINE
  8
0
 10
-11.43
 20
-32.175
 11
-11.5178
 21
-32.1836
  0
LINE
  8
0
 10
-11.5178
 20
-32.1836
 11
-11.6022
 21
-32.2093
  0
LINE
  8
0
 10
-11.6022
 20
-32.2093
 11
-11.68
 21
-32.2508
  0
LINE
  8
0
 10
-11.68
 20
-32.2508
 11
-11.7482
 21
-32.3068
  0
LINE
  8
0
 10
-11.7482
 20
-32.3068
 11
-11.8042
 21
-32.375
  0
LINE
  8
0
 10
-11.8042
 20
-32.375
 11
-11.8458
 21
-32.4528
  0
LINE
  8
0
 10
-11.8458
 20
-32.4528
 11
-11.8714
 21
-32.5372
  0
LINE
  8
0
 10
-11.8714
 20
-32.5372
 11
-11.88
 21
-32.625
  0
LINE
  8
0
 10
-11.88
 20
-32.625
 11
-11.8714
 21
-32.7128
  0
LINE
  8
0
 10
-11.8714
 20
-32.7128
 11
-11.8458
 21
-32.7972
  0
LINE
  8
0
 10
-11.8458
 20
-32.7972
 11
-11.8042
 21
-32.875
  0
LINE
  8
0
 10
-11.8042
 20
-32.875
 11
-11.7482
 21
-32.9432
  0
LINE
  8
0
 10
-11.7482
 20
-32.9432
 11
-11.68
 21
-32.9992
  0
LINE
  8
0
 10
-11.68
 20
-32.9992
 11
-11.6022
 21
-33.0408
  0
LINE
  8
0
 10
-11.6022
 20
-33.0408
 11
-11.5178
 21
-33.0664
  0
LINE
  8
0
 10
-11.5178
 20
-33.0664
 11
-11.43
 21
-33.075
  0
LINE
  8
0
 10
-11.43
 20
-33.075
 11
-11.3422
 21
-33.0664
  0
LINE
  8
0
 10
-10.0722
 20
-33.0664
 11
-9.9878
 21
-33.0408
  0
LINE
  8
0
 10
-9.9878
 20
-33.0408
 11
-9.91
 21
-32.9992
  0
LINE
  8
0
 10
-9.91
 20
-32.9992
 11
-9.84181
 21
-32.9432
  0
LINE
  8
0
 10
-9.84181
 20
-32.9432
 11
-9.78585
 21
-32.875
  0
LINE
  8
0
 10
-9.78585
 20
-32.875
 11
-9.74426
 21
-32.7972
  0
LINE
  8
0
 10
-9.74426
 20
-32.7972
 11
-9.71865
 21
-32.7128
  0
LINE
  8
0
 10
-9.71865
 20
-32.7128
 11
-9.71
 21
-32.625
  0
LINE
  8
0
 10
-9.71
 20
-32.625
 11
-9.71865
 21
-32.5372
  0
LINE
  8
0
 10
-9.71865
 20
-32.5372
 11
-9.74426
 21
-32.4528
  0
LINE
  8
0
 10
-9.74426
 20
-32.4528
 11
-9.78585
 21
-32.375
  0
LINE
  8
0
 10
-9.78585
 20
-32.375
 11
-9.84181
 21
-32.3068
  0
LINE
  8
0
 10
-9.84181
 20
-32.3068
 11
-9.91
 21
-32.2508
  0
LINE
  8
0
 10
-9.91
 20
-32.2508
 11
-9.9878
 21
-32.2093
  0
LINE
  8
0
 10
-9.9878
 20
-32.2093
 11
-10.0722
 21
-32.1836
  0
LINE
  8
0
 10
-10.0722
 20
-32.1836
 11
-10.16
 21
-32.175
  0
LINE
  8
0
 10
-10.16
 20
-32.175
 11
-10.2478
 21
-32.1836
  0
LINE
  8
0
 10
-10.2478
 20
-32.1836
 11
-10.3322
 21
-32.2093
  0
LINE
  8
0
 10
-10.3322
 20
-32.2093
 11
-10.41
 21
-32.2508
  0
LINE
  8
0
 10
-10.41
 20
-32.2508
 11
-10.4782
 21
-32.3068
  0
LINE
  8
0
 10
-10.4782
 20
-32.3068
 11
-10.5342
 21
-32.375
  0
LINE
  8
0
 10
-10.5342
 20
-32.375
 11
-10.5758
 21
-32.4528
  0
LINE
  8
0
 10
-10.5758
 20
-32.4528
 11
-10.6014
 21
-32.5372
  0
LINE
  8
0
 10
-10.6014
 20
-32.5372
 11
-10.61
 21
-32.625
  0
LINE
  8
0
 10
-10.61
 20
-32.625
 11
-10.6014
 21
-32.7128
  0
LINE
  8
0
 10
-10.6014
 20
-32.7128
 11
-10.5758
 21
-32.7972
  0
LINE
  8
0
 10
-10.5758
 20
-32.7972
 11
-10.5342
 21
-32.875
  0
LINE
  8
0
 10
-10.5342
 20
-32.875
 11
-10.4782
 21
-32.9432
  0
LINE
  8
0
 10
-10.4782
 20
-32.9432
 11
-10.41
 21
-32.9992
  0
LINE
  8
0
 10
-10.41
 20
-32.9992
 11
-10.3322
 21
-33.0408
  0
LINE
  8
0
 10
-10.3322
 20
-33.0408
 11
-10.2478
 21
-33.0664
  0
LINE
  8
0
 10
-10.2478
 20
-33.0664
 11
-10.16
 21
-33.075
  0
LINE
  8
0
 10
-10.16
 20
-33.075
 11
-10.0722
 21
-33.0664
  0
LINE
  8
0
 10
-8.80221
 20
-33.0664
 11
-8.7178
 21
-33.0408
  0
LINE
  8
0
 10
-8.7178
 20
-33.0408
 11
-8.64001
 21
-32.9992
  0
LINE
  8
0
 10
-8.64001
 20
-32.9992
 11
-8.57182
 21
-32.9432
  0
LINE
  8
0
 10
-8.57182
 20
-32.9432
 11
-8.51585
 21
-32.875
  0
LINE
  8
0
 10
-8.51585
 20
-32.875
 11
-8.47427
 21
-32.7972
  0
LINE
  8
0
 10
-8.47427
 20
-32.7972
 11
-8.44865
 21
-32.7128
  0
LINE
  8
0
 10
-8.44865
 20
-32.7128
 11
-8.44001
 21
-32.625
  0
LINE
  8
0
 10
-8.44001
 20
-32.625
 11
-8.44865
 21
-32.5372
  0
LINE
  8
0
 10
-8.44865
 20
-32.5372
 11
-8.47427
 21
-32.4528
  0
LINE
  8
0
 10
-8.47427
 20
-32.4528
 11
-8.51585
 21
-32.375
  0
LINE
  8
0
 10
-8.51585
 20
-32.375
 11
-8.57182
 21
-32.3068
  0
LINE
  8
0
 10
-8.57182
 20
-32.3068
 11
-8.64001
 21
-32.2508
  0
LINE
  8
0
 10
-8.64001
 20
-32.2508
 11
-8.7178
 21
-32.2093
  0
LINE
  8
0
 10
-8.7178
 20
-32.2093
 11
-8.80221
 21
-32.1836
  0
LINE
  8
0
 10
-8.80221
 20
-32.1836
 11
-8.89001
 21
-32.175
  0
LINE
  8
0
 10
-8.89001
 20
-32.175
 11
-8.97779
 21
-32.1836
  0
LINE
  8
0
 10
-8.97779
 20
-32.1836
 11
-9.06222
 21
-32.2093
  0
LINE
  8
0
 10
-9.06222
 20
-32.2093
 11
-9.14001
 21
-32.2508
  0
LINE
  8
0
 10
-9.14001
 20
-32.2508
 11
-9.2082
 21
-32.3068
  0
LINE
  8
0
 10
-9.2082
 20
-32.3068
 11
-9.26417
 21
-32.375
  0
LINE
  8
0
 10
-9.26417
 20
-32.375
 11
-9.30575
 21
-32.4528
  0
LINE
  8
0
 10
-9.30575
 20
-32.4528
 11
-9.33135
 21
-32.5372
  0
LINE
  8
0
 10
-9.33135
 20
-32.5372
 11
-9.34001
 21
-32.625
  0
LINE
  8
0
 10
-9.34001
 20
-32.625
 11
-9.33135
 21
-32.7128
  0
LINE
  8
0
 10
-9.33135
 20
-32.7128
 11
-9.30575
 21
-32.7972
  0
LINE
  8
0
 10
-9.30575
 20
-32.7972
 11
-9.26417
 21
-32.875
  0
LINE
  8
0
 10
-9.26417
 20
-32.875
 11
-9.2082
 21
-32.9432
  0
LINE
  8
0
 10
-9.2082
 20
-32.9432
 11
-9.14001
 21
-32.9992
  0
LINE
  8
0
 10
-9.14001
 20
-32.9992
 11
-9.06222
 21
-33.0408
  0
LINE
  8
0
 10
-9.06222
 20
-33.0408
 11
-8.97779
 21
-33.0664
  0
LINE
  8
0
 10
-8.97779
 20
-33.0664
 11
-8.89001
 21
-33.075
  0
LINE
  8
0
 10
-8.89001
 20
-33.075
 11
-8.80221
 21
-33.0664
  0
LINE
  8
0
 10
-7.53222
 20
-33.0664
 11
-7.44779
 21
-33.0408
  0
LINE
  8
0
 10
-7.44779
 20
-33.0408
 11
-7.37
 21
-32.9992
  0
LINE
  8
0
 10
-7.37
 20
-32.9992
 11
-7.30181
 21
-32.9432
  0
LINE
  8
0
 10
-7.30181
 20
-32.9432
 11
-7.24584
 21
-32.875
  0
LINE
  8
0
 10
-7.24584
 20
-32.875
 11
-7.20426
 21
-32.7972
  0
LINE
  8
0
 10
-7.20426
 20
-32.7972
 11
-7.17866
 21
-32.7128
  0
LINE
  8
0
 10
-7.17866
 20
-32.7128
 11
-7.17001
 21
-32.625
  0
LINE
  8
0
 10
-7.17001
 20
-32.625
 11
-7.17866
 21
-32.5372
  0
LINE
  8
0
 10
-7.17866
 20
-32.5372
 11
-7.20426
 21
-32.4528
  0
LINE
  8
0
 10
-7.20426
 20
-32.4528
 11
-7.24584
 21
-32.375
  0
LINE
  8
0
 10
-7.24584
 20
-32.375
 11
-7.30181
 21
-32.3068
  0
LINE
  8
0
 10
-7.30181
 20
-32.3068
 11
-7.37
 21
-32.2508
  0
LINE
  8
0
 10
-7.37
 20
-32.2508
 11
-7.44779
 21
-32.2093
  0
LINE
  8
0
 10
-7.44779
 20
-32.2093
 11
-7.53222
 21
-32.1836
  0
LINE
  8
0
 10
-7.53222
 20
-32.1836
 11
-7.62
 21
-32.175
  0
LINE
  8
0
 10
-7.62
 20
-32.175
 11
-7.7078
 21
-32.1836
  0
LINE
  8
0
 10
-7.7078
 20
-32.1836
 11
-7.79221
 21
-32.2093
  0
LINE
  8
0
 10
-7.79221
 20
-32.2093
 11
-7.87002
 21
-32.2508
  0
LINE
  8
0
 10
-7.87002
 20
-32.2508
 11
-7.93821
 21
-32.3068
  0
LINE
  8
0
 10
-7.93821
 20
-32.3068
 11
-7.99417
 21
-32.375
  0
LINE
  8
0
 10
-7.99417
 20
-32.375
 11
-8.03576
 21
-32.4528
  0
LINE
  8
0
 10
-8.03576
 20
-32.4528
 11
-8.06136
 21
-32.5372
  0
LINE
  8
0
 10
-8.06136
 20
-32.5372
 11
-8.07
 21
-32.625
  0
LINE
  8
0
 10
-8.07
 20
-32.625
 11
-8.06136
 21
-32.7128
  0
LINE
  8
0
 10
-8.06136
 20
-32.7128
 11
-8.03576
 21
-32.7972
  0
LINE
  8
0
 10
-8.03576
 20
-32.7972
 11
-7.99417
 21
-32.875
  0
LINE
  8
0
 10
-7.99417
 20
-32.875
 11
-7.93821
 21
-32.9432
  0
LINE
  8
0
 10
-7.93821
 20
-32.9432
 11
-7.87002
 21
-32.9992
  0
LINE
  8
0
 10
-7.87002
 20
-32.9992
 11
-7.79221
 21
-33.0408
  0
LINE
  8
0
 10
-7.79221
 20
-33.0408
 11
-7.7078
 21
-33.0664
  0
LINE
  8
0
 10
-7.7078
 20
-33.0664
 11
-7.62
 21
-33.075
  0
LINE
  8
0
 10
-7.62
 20
-33.075
 11
-7.53222
 21
-33.0664
  0
LINE
  8
0
 10
-6.26222
 20
-33.0664
 11
-6.1778
 21
-33.0408
  0
LINE
  8
0
 10
-6.1778
 20
-33.0408
 11
-6.1
 21
-32.9992
  0
LINE
  8
0
 10
-6.1
 20
-32.9992
 11
-6.03181
 21
-32.9432
  0
LINE
  8
0
 10
-6.03181
 20
-32.9432
 11
-5.97584
 21
-32.875
  0
LINE
  8
0
 10
-5.97584
 20
-32.875
 11
-5.93426
 21
-32.7972
  0
LINE
  8
0
 10
-5.93426
 20
-32.7972
 11
-5.90865
 21
-32.7128
  0
LINE
  8
0
 10
-5.90865
 20
-32.7128
 11
-5.9
 21
-32.625
  0
LINE
  8
0
 10
-5.9
 20
-32.625
 11
-5.90865
 21
-32.5372
  0
LINE
  8
0
 10
-5.90865
 20
-32.5372
 11
-5.93426
 21
-32.4528
  0
LINE
  8
0
 10
-5.93426
 20
-32.4528
 11
-5.97584
 21
-32.375
  0
LINE
  8
0
 10
-5.97584
 20
-32.375
 11
-6.03181
 21
-32.3068
  0
LINE
  8
0
 10
-6.03181
 20
-32.3068
 11
-6.1
 21
-32.2508
  0
LINE
  8
0
 10
-6.1
 20
-32.2508
 11
-6.1778
 21
-32.2093
  0
LINE
  8
0
 10
-6.1778
 20
-32.2093
 11
-6.26222
 21
-32.1836
  0
LINE
  8
0
 10
-6.26222
 20
-32.1836
 11
-6.35
 21
-32.175
  0
LINE
  8
0
 10
-6.35
 20
-32.175
 11
-6.4378
 21
-32.1836
  0
LINE
  8
0
 10
-6.4378
 20
-32.1836
 11
-6.52221
 21
-32.2093
  0
LINE
  8
0
 10
-6.52221
 20
-32.2093
 11
-6.60002
 21
-32.2508
  0
LINE
  8
0
 10
-6.60002
 20
-32.2508
 11
-6.66821
 21
-32.3068
  0
LINE
  8
0
 10
-6.66821
 20
-32.3068
 11
-6.72418
 21
-32.375
  0
LINE
  8
0
 10
-6.72418
 20
-32.375
 11
-6.76576
 21
-32.4528
  0
LINE
  8
0
 10
-6.76576
 20
-32.4528
 11
-6.79136
 21
-32.5372
  0
LINE
  8
0
 10
-6.79136
 20
-32.5372
 11
-6.80001
 21
-32.625
  0
LINE
  8
0
 10
-6.80001
 20
-32.625
 11
-6.79136
 21
-32.7128
  0
LINE
  8
0
 10
-6.79136
 20
-32.7128
 11
-6.76576
 21
-32.7972
  0
LINE
  8
0
 10
-6.76576
 20
-32.7972
 11
-6.72418
 21
-32.875
  0
LINE
  8
0
 10
-6.72418
 20
-32.875
 11
-6.66821
 21
-32.9432
  0
LINE
  8
0
 10
-6.66821
 20
-32.9432
 11
-6.60002
 21
-32.9992
  0
LINE
  8
0
 10
-6.60002
 20
-32.9992
 11
-6.52221
 21
-33.0408
  0
LINE
  8
0
 10
-6.52221
 20
-33.0408
 11
-6.4378
 21
-33.0664
  0
LINE
  8
0
 10
-6.4378
 20
-33.0664
 11
-6.35
 21
-33.075
  0
LINE
  8
0
 10
-6.35
 20
-33.075
 11
-6.26222
 21
-33.0664
  0
LINE
  8
0
 10
-4.99221
 20
-33.0664
 11
-4.9078
 21
-33.0408
  0
LINE
  8
0
 10
-4.9078
 20
-33.0408
 11
-4.83
 21
-32.9992
  0
LINE
  8
0
 10
-4.83
 20
-32.9992
 11
-4.7618
 21
-32.9432
  0
LINE
  8
0
 10
-4.7618
 20
-32.9432
 11
-4.70585
 21
-32.875
  0
LINE
  8
0
 10
-4.70585
 20
-32.875
 11
-4.66425
 21
-32.7972
  0
LINE
  8
0
 10
-4.66425
 20
-32.7972
 11
-4.63865
 21
-32.7128
  0
LINE
  8
0
 10
-4.63865
 20
-32.7128
 11
-4.63001
 21
-32.625
  0
LINE
  8
0
 10
-4.63001
 20
-32.625
 11
-4.63865
 21
-32.5372
  0
LINE
  8
0
 10
-4.63865
 20
-32.5372
 11
-4.66425
 21
-32.4528
  0
LINE
  8
0
 10
-4.66425
 20
-32.4528
 11
-4.70585
 21
-32.375
  0
LINE
  8
0
 10
-4.70585
 20
-32.375
 11
-4.7618
 21
-32.3068
  0
LINE
  8
0
 10
-4.7618
 20
-32.3068
 11
-4.83
 21
-32.2508
  0
LINE
  8
0
 10
-4.83
 20
-32.2508
 11
-4.9078
 21
-32.2093
  0
LINE
  8
0
 10
-4.9078
 20
-32.2093
 11
-4.99221
 21
-32.1836
  0
LINE
  8
0
 10
-4.99221
 20
-32.1836
 11
-5.08001
 21
-32.175
  0
LINE
  8
0
 10
-5.08001
 20
-32.175
 11
-5.16779
 21
-32.1836
  0
LINE
  8
0
 10
-5.16779
 20
-32.1836
 11
-5.25222
 21
-32.2093
  0
LINE
  8
0
 10
-5.25222
 20
-32.2093
 11
-5.33001
 21
-32.2508
  0
LINE
  8
0
 10
-5.33001
 20
-32.2508
 11
-5.3982
 21
-32.3068
  0
LINE
  8
0
 10
-5.3982
 20
-32.3068
 11
-5.45417
 21
-32.375
  0
LINE
  8
0
 10
-5.45417
 20
-32.375
 11
-5.49575
 21
-32.4528
  0
LINE
  8
0
 10
-5.49575
 20
-32.4528
 11
-5.52136
 21
-32.5372
  0
LINE
  8
0
 10
-5.52136
 20
-32.5372
 11
-5.53001
 21
-32.625
  0
LINE
  8
0
 10
-5.53001
 20
-32.625
 11
-5.52136
 21
-32.7128
  0
LINE
  8
0
 10
-5.52136
 20
-32.7128
 11
-5.49575
 21
-32.7972
  0
LINE
  8
0
 10
-5.49575
 20
-32.7972
 11
-5.45417
 21
-32.875
  0
LINE
  8
0
 10
-5.45417
 20
-32.875
 11
-5.3982
 21
-32.9432
  0
LINE
  8
0
 10
-5.3982
 20
-32.9432
 11
-5.33001
 21
-32.9992
  0
LINE
  8
0
 10
-5.33001
 20
-32.9992
 11
-5.25222
 21
-33.0408
  0
LINE
  8
0
 10
-5.25222
 20
-33.0408
 11
-5.16779
 21
-33.0664
  0
LINE
  8
0
 10
-5.16779
 20
-33.0664
 11
-5.08001
 21
-33.075
  0
LINE
  8
0
 10
-5.08001
 20
-33.075
 11
-4.99221
 21
-33.0664
  0
LINE
  8
0
 10
-3.72222
 20
-33.0664
 11
-3.6378
 21
-33.0408
  0
LINE
  8
0
 10
-3.6378
 20
-33.0408
 11
-3.56001
 21
-32.9992
  0
LINE
  8
0
 10
-3.56001
 20
-32.9992
 11
-3.49182
 21
-32.9432
  0
LINE
  8
0
 10
-3.49182
 20
-32.9432
 11
-3.43585
 21
-32.875
  0
LINE
  8
0
 10
-3.43585
 20
-32.875
 11
-3.39427
 21
-32.7972
  0
LINE
  8
0
 10
-3.39427
 20
-32.7972
 11
-3.36866
 21
-32.7128
  0
LINE
  8
0
 10
-3.36866
 20
-32.7128
 11
-3.36001
 21
-32.625
  0
LINE
  8
0
 10
-3.36001
 20
-32.625
 11
-3.36866
 21
-32.5372
  0
LINE
  8
0
 10
-3.36866
 20
-32.5372
 11
-3.39427
 21
-32.4528
  0
LINE
  8
0
 10
-3.39427
 20
-32.4528
 11
-3.43585
 21
-32.375
  0
LINE
  8
0
 10
-3.43585
 20
-32.375
 11
-3.49182
 21
-32.3068
  0
LINE
  8
0
 10
-3.49182
 20
-32.3068
 11
-3.56001
 21
-32.2508
  0
LINE
  8
0
 10
-3.56001
 20
-32.2508
 11
-3.6378
 21
-32.2093
  0
LINE
  8
0
 10
-3.6378
 20
-32.2093
 11
-3.72222
 21
-32.1836
  0
LINE
  8
0
 10
-3.72222
 20
-32.1836
 11
-3.81001
 21
-32.175
  0
LINE
  8
0
 10
-3.81001
 20
-32.175
 11
-3.89781
 21
-32.1836
  0
LINE
  8
0
 10
-3.89781
 20
-32.1836
 11
-3.98222
 21
-32.2093
  0
LINE
  8
0
 10
-3.98222
 20
-32.2093
 11
-4.06001
 21
-32.2508
  0
LINE
  8
0
 10
-4.06001
 20
-32.2508
 11
-4.1282
 21
-32.3068
  0
LINE
  8
0
 10
-4.1282
 20
-32.3068
 11
-4.18417
 21
-32.375
  0
LINE
  8
0
 10
-4.18417
 20
-32.375
 11
-4.22575
 21
-32.4528
  0
LINE
  8
0
 10
-4.22575
 20
-32.4528
 11
-4.25137
 21
-32.5372
  0
LINE
  8
0
 10
-4.25137
 20
-32.5372
 11
-4.26
 21
-32.625
  0
LINE
  8
0
 10
-4.26
 20
-32.625
 11
-4.25137
 21
-32.7128
  0
LINE
  8
0
 10
-4.25137
 20
-32.7128
 11
-4.22575
 21
-32.7972
  0
LINE
  8
0
 10
-4.22575
 20
-32.7972
 11
-4.18417
 21
-32.875
  0
LINE
  8
0
 10
-4.18417
 20
-32.875
 11
-4.1282
 21
-32.9432
  0
LINE
  8
0
 10
-4.1282
 20
-32.9432
 11
-4.06001
 21
-32.9992
  0
LINE
  8
0
 10
-4.06001
 20
-32.9992
 11
-3.98222
 21
-33.0408
  0
LINE
  8
0
 10
-3.98222
 20
-33.0408
 11
-3.89781
 21
-33.0664
  0
LINE
  8
0
 10
-3.89781
 20
-33.0664
 11
-3.81001
 21
-33.075
  0
LINE
  8
0
 10
-3.81001
 20
-33.075
 11
-3.72222
 21
-33.0664
  0
LINE
  8
0
 10
12.7878
 20
-33.0664
 11
12.8722
 21
-33.0408
  0
LINE
  8
0
 10
12.8722
 20
-33.0408
 11
12.95
 21
-32.9992
  0
LINE
  8
0
 10
12.95
 20
-32.9992
 11
13.0182
 21
-32.9432
  0
LINE
  8
0
 10
13.0182
 20
-32.9432
 11
13.0741
 21
-32.875
  0
LINE
  8
0
 10
13.0741
 20
-32.875
 11
13.1157
 21
-32.7972
  0
LINE
  8
0
 10
13.1157
 20
-32.7972
 11
13.1413
 21
-32.7128
  0
LINE
  8
0
 10
13.1413
 20
-32.7128
 11
13.15
 21
-32.625
  0
LINE
  8
0
 10
13.15
 20
-32.625
 11
13.1413
 21
-32.5372
  0
LINE
  8
0
 10
13.1413
 20
-32.5372
 11
13.1157
 21
-32.4528
  0
LINE
  8
0
 10
13.1157
 20
-32.4528
 11
13.0741
 21
-32.375
  0
LINE
  8
0
 10
13.0741
 20
-32.375
 11
13.0182
 21
-32.3068
  0
LINE
  8
0
 10
13.0182
 20
-32.3068
 11
12.95
 21
-32.2508
  0
LINE
  8
0
 10
12.95
 20
-32.2508
 11
12.8722
 21
-32.2093
  0
LINE
  8
0
 10
12.8722
 20
-32.2093
 11
12.7878
 21
-32.1836
  0
LINE
  8
0
 10
12.7878
 20
-32.1836
 11
12.7
 21
-32.175
  0
LINE
  8
0
 10
12.7
 20
-32.175
 11
12.6122
 21
-32.1836
  0
LINE
  8
0
 10
12.6122
 20
-32.1836
 11
12.5278
 21
-32.2093
  0
LINE
  8
0
 10
12.5278
 20
-32.2093
 11
12.45
 21
-32.2508
  0
LINE
  8
0
 10
12.45
 20
-32.2508
 11
12.3818
 21
-32.3068
  0
LINE
  8
0
 10
12.3818
 20
-32.3068
 11
12.3258
 21
-32.375
  0
LINE
  8
0
 10
12.3258
 20
-32.375
 11
12.2842
 21
-32.4528
  0
LINE
  8
0
 10
12.2842
 20
-32.4528
 11
12.2586
 21
-32.5372
  0
LINE
  8
0
 10
12.2586
 20
-32.5372
 11
12.25
 21
-32.625
  0
LINE
  8
0
 10
12.25
 20
-32.625
 11
12.2586
 21
-32.7128
  0
LINE
  8
0
 10
12.2586
 20
-32.7128
 11
12.2842
 21
-32.7972
  0
LINE
  8
0
 10
12.2842
 20
-32.7972
 11
12.3258
 21
-32.875
  0
LINE
  8
0
 10
12.3258
 20
-32.875
 11
12.3818
 21
-32.9432
  0
LINE
  8
0
 10
12.3818
 20
-32.9432
 11
12.45
 21
-32.9992
  0
LINE
  8
0
 10
12.45
 20
-32.9992
 11
12.5278
 21
-33.0408
  0
LINE
  8
0
 10
12.5278
 20
-33.0408
 11
12.6122
 21
-33.0664
  0
LINE
  8
0
 10
12.6122
 20
-33.0664
 11
12.7
 21
-33.075
  0
LINE
  8
0
 10
12.7
 20
-33.075
 11
12.7878
 21
-33.0664
  0
LINE
  8
0
 10
-1.18221
 20
-33.0664
 11
-1.0978
 21
-33.0408
  0
LINE
  8
0
 10
-1.0978
 20
-33.0408
 11
-1.02
 21
-32.9992
  0
LINE
  8
0
 10
-1.02
 20
-32.9992
 11
-0.951807
 21
-32.9432
  0
LINE
  8
0
 10
-0.951807
 20
-32.9432
 11
-0.895853
 21
-32.875
  0
LINE
  8
0
 10
-0.895853
 20
-32.875
 11
-0.854257
 21
-32.7972
  0
LINE
  8
0
 10
-0.854257
 20
-32.7972
 11
-0.828653
 21
-32.7128
  0
LINE
  8
0
 10
-0.828653
 20
-32.7128
 11
-0.820001
 21
-32.625
  0
LINE
  8
0
 10
-0.820001
 20
-32.625
 11
-0.828653
 21
-32.5372
  0
LINE
  8
0
 10
-0.828653
 20
-32.5372
 11
-0.854257
 21
-32.4528
  0
LINE
  8
0
 10
-0.854257
 20
-32.4528
 11
-0.895853
 21
-32.375
  0
LINE
  8
0
 10
-0.895853
 20
-32.375
 11
-0.951807
 21
-32.3068
  0
LINE
  8
0
 10
-0.951807
 20
-32.3068
 11
-1.02
 21
-32.2508
  0
LINE
  8
0
 10
-1.02
 20
-32.2508
 11
-1.0978
 21
-32.2093
  0
LINE
  8
0
 10
-1.0978
 20
-32.2093
 11
-1.18221
 21
-32.1836
  0
LINE
  8
0
 10
-1.18221
 20
-32.1836
 11
-1.27001
 21
-32.175
  0
LINE
  8
0
 10
-1.27001
 20
-32.175
 11
-1.3578
 21
-32.1836
  0
LINE
  8
0
 10
-1.3578
 20
-32.1836
 11
-1.44221
 21
-32.2093
  0
LINE
  8
0
 10
-1.44221
 20
-32.2093
 11
-1.52001
 21
-32.2508
  0
LINE
  8
0
 10
-1.52001
 20
-32.2508
 11
-1.5882
 21
-32.3068
  0
LINE
  8
0
 10
-1.5882
 20
-32.3068
 11
-1.64417
 21
-32.375
  0
LINE
  8
0
 10
-1.64417
 20
-32.375
 11
-1.68575
 21
-32.4528
  0
LINE
  8
0
 10
-1.68575
 20
-32.4528
 11
-1.71136
 21
-32.5372
  0
LINE
  8
0
 10
-1.71136
 20
-32.5372
 11
-1.72001
 21
-32.625
  0
LINE
  8
0
 10
-1.72001
 20
-32.625
 11
-1.71136
 21
-32.7128
  0
LINE
  8
0
 10
-1.71136
 20
-32.7128
 11
-1.68575
 21
-32.7972
  0
LINE
  8
0
 10
-1.68575
 20
-32.7972
 11
-1.64417
 21
-32.875
  0
LINE
  8
0
 10
-1.64417
 20
-32.875
 11
-1.5882
 21
-32.9432
  0
LINE
  8
0
 10
-1.5882
 20
-32.9432
 11
-1.52001
 21
-32.9992
  0
LINE
  8
0
 10
-1.52001
 20
-32.9992
 11
-1.44221
 21
-33.0408
  0
LINE
  8
0
 10
-1.44221
 20
-33.0408
 11
-1.3578
 21
-33.0664
  0
LINE
  8
0
 10
-1.3578
 20
-33.0664
 11
-1.27001
 21
-33.075
  0
LINE
  8
0
 10
-1.27001
 20
-33.075
 11
-1.18221
 21
-33.0664
  0
LINE
  8
0
 10
-13.8822
 20
-33.0664
 11
-13.7978
 21
-33.0408
  0
LINE
  8
0
 10
-13.7978
 20
-33.0408
 11
-13.72
 21
-32.9992
  0
LINE
  8
0
 10
-13.72
 20
-32.9992
 11
-13.6518
 21
-32.9432
  0
LINE
  8
0
 10
-13.6518
 20
-32.9432
 11
-13.5958
 21
-32.875
  0
LINE
  8
0
 10
-13.5958
 20
-32.875
 11
-13.5543
 21
-32.7972
  0
LINE
  8
0
 10
-13.5543
 20
-32.7972
 11
-13.5286
 21
-32.7128
  0
LINE
  8
0
 10
-13.5286
 20
-32.7128
 11
-13.52
 21
-32.625
  0
LINE
  8
0
 10
-13.52
 20
-32.625
 11
-13.5286
 21
-32.5372
  0
LINE
  8
0
 10
-13.5286
 20
-32.5372
 11
-13.5543
 21
-32.4528
  0
LINE
  8
0
 10
-13.5543
 20
-32.4528
 11
-13.5958
 21
-32.375
  0
LINE
  8
0
 10
-13.5958
 20
-32.375
 11
-13.6518
 21
-32.3068
  0
LINE
  8
0
 10
-13.6518
 20
-32.3068
 11
-13.72
 21
-32.2508
  0
LINE
  8
0
 10
-13.72
 20
-32.2508
 11
-13.7978
 21
-32.2093
  0
LINE
  8
0
 10
-13.7978
 20
-32.2093
 11
-13.8822
 21
-32.1836
  0
LINE
  8
0
 10
-13.8822
 20
-32.1836
 11
-13.97
 21
-32.175
  0
LINE
  8
0
 10
-13.97
 20
-32.175
 11
-14.0578
 21
-32.1836
  0
LINE
  8
0
 10
-14.0578
 20
-32.1836
 11
-14.1422
 21
-32.2093
  0
LINE
  8
0
 10
-14.1422
 20
-32.2093
 11
-14.22
 21
-32.2508
  0
LINE
  8
0
 10
-14.22
 20
-32.2508
 11
-14.2882
 21
-32.3068
  0
LINE
  8
0
 10
-14.2882
 20
-32.3068
 11
-14.3442
 21
-32.375
  0
LINE
  8
0
 10
-14.3442
 20
-32.375
 11
-14.3858
 21
-32.4528
  0
LINE
  8
0
 10
-14.3858
 20
-32.4528
 11
-14.4114
 21
-32.5372
  0
LINE
  8
0
 10
-14.4114
 20
-32.5372
 11
-14.42
 21
-32.625
  0
LINE
  8
0
 10
-14.42
 20
-32.625
 11
-14.4114
 21
-32.7128
  0
LINE
  8
0
 10
-14.4114
 20
-32.7128
 11
-14.3858
 21
-32.7972
  0
LINE
  8
0
 10
-14.3858
 20
-32.7972
 11
-14.3442
 21
-32.875
  0
LINE
  8
0
 10
-14.3442
 20
-32.875
 11
-14.2882
 21
-32.9432
  0
LINE
  8
0
 10
-14.2882
 20
-32.9432
 11
-14.22
 21
-32.9992
  0
LINE
  8
0
 10
-14.22
 20
-32.9992
 11
-14.1422
 21
-33.0408
  0
LINE
  8
0
 10
-14.1422
 20
-33.0408
 11
-14.0578
 21
-33.0664
  0
LINE
  8
0
 10
-14.0578
 20
-33.0664
 11
-13.97
 21
-33.075
  0
LINE
  8
0
 10
-13.97
 20
-33.075
 11
-13.8822
 21
-33.0664
  0
LINE
  8
0
 10
1.35778
 20
-33.0664
 11
1.44221
 21
-33.0408
  0
LINE
  8
0
 10
1.44221
 20
-33.0408
 11
1.52
 21
-32.9992
  0
LINE
  8
0
 10
1.52
 20
-32.9992
 11
1.58819
 21
-32.9432
  0
LINE
  8
0
 10
1.58819
 20
-32.9432
 11
1.64416
 21
-32.875
  0
LINE
  8
0
 10
1.64416
 20
-32.875
 11
1.68574
 21
-32.7972
  0
LINE
  8
0
 10
1.68574
 20
-32.7972
 11
1.71134
 21
-32.7128
  0
LINE
  8
0
 10
1.71134
 20
-32.7128
 11
1.71999
 21
-32.625
  0
LINE
  8
0
 10
1.71999
 20
-32.625
 11
1.71134
 21
-32.5372
  0
LINE
  8
0
 10
1.71134
 20
-32.5372
 11
1.68574
 21
-32.4528
  0
LINE
  8
0
 10
1.68574
 20
-32.4528
 11
1.64416
 21
-32.375
  0
LINE
  8
0
 10
1.64416
 20
-32.375
 11
1.58819
 21
-32.3068
  0
LINE
  8
0
 10
1.58819
 20
-32.3068
 11
1.52
 21
-32.2508
  0
LINE
  8
0
 10
1.52
 20
-32.2508
 11
1.44221
 21
-32.2093
  0
LINE
  8
0
 10
1.44221
 20
-32.2093
 11
1.35778
 21
-32.1836
  0
LINE
  8
0
 10
1.35778
 20
-32.1836
 11
1.27
 21
-32.175
  0
LINE
  8
0
 10
1.27
 20
-32.175
 11
1.1822
 21
-32.1836
  0
LINE
  8
0
 10
1.1822
 20
-32.1836
 11
1.09778
 21
-32.2093
  0
LINE
  8
0
 10
1.09778
 20
-32.2093
 11
1.01998
 21
-32.2508
  0
LINE
  8
0
 10
1.01998
 20
-32.2508
 11
0.951788
 21
-32.3068
  0
LINE
  8
0
 10
0.951788
 20
-32.3068
 11
0.895834
 21
-32.375
  0
LINE
  8
0
 10
0.895834
 20
-32.375
 11
0.854254
 21
-32.4528
  0
LINE
  8
0
 10
0.854254
 20
-32.4528
 11
0.828635
 21
-32.5372
  0
LINE
  8
0
 10
0.828635
 20
-32.5372
 11
0.819998
 21
-32.625
  0
LINE
  8
0
 10
0.819998
 20
-32.625
 11
0.828635
 21
-32.7128
  0
LINE
  8
0
 10
0.828635
 20
-32.7128
 11
0.854254
 21
-32.7972
  0
LINE
  8
0
 10
0.854254
 20
-32.7972
 11
0.895834
 21
-32.875
  0
LINE
  8
0
 10
0.895834
 20
-32.875
 11
0.951788
 21
-32.9432
  0
LINE
  8
0
 10
0.951788
 20
-32.9432
 11
1.01998
 21
-32.9992
  0
LINE
  8
0
 10
1.01998
 20
-32.9992
 11
1.09778
 21
-33.0408
  0
LINE
  8
0
 10
1.09778
 20
-33.0408
 11
1.1822
 21
-33.0664
  0
LINE
  8
0
 10
1.1822
 20
-33.0664
 11
1.27
 21
-33.075
  0
LINE
  8
0
 10
1.27
 20
-33.075
 11
1.35778
 21
-33.0664
  0
LINE
  8
0
 10
2.62778
 20
-33.0664
 11
2.71219
 21
-33.0408
  0
LINE
  8
0
 10
2.71219
 20
-33.0408
 11
2.79
 21
-32.9992
  0
LINE
  8
0
 10
2.79
 20
-32.9992
 11
2.85819
 21
-32.9432
  0
LINE
  8
0
 10
2.85819
 20
-32.9432
 11
2.91416
 21
-32.875
  0
LINE
  8
0
 10
2.91416
 20
-32.875
 11
2.95574
 21
-32.7972
  0
LINE
  8
0
 10
2.95574
 20
-32.7972
 11
2.98134
 21
-32.7128
  0
LINE
  8
0
 10
2.98134
 20
-32.7128
 11
2.99
 21
-32.625
  0
LINE
  8
0
 10
2.99
 20
-32.625
 11
2.98134
 21
-32.5372
  0
LINE
  8
0
 10
2.98134
 20
-32.5372
 11
2.95574
 21
-32.4528
  0
LINE
  8
0
 10
2.95574
 20
-32.4528
 11
2.91416
 21
-32.375
  0
LINE
  8
0
 10
2.91416
 20
-32.375
 11
2.85819
 21
-32.3068
  0
LINE
  8
0
 10
2.85819
 20
-32.3068
 11
2.79
 21
-32.2508
  0
LINE
  8
0
 10
2.79
 20
-32.2508
 11
2.71219
 21
-32.2093
  0
LINE
  8
0
 10
2.71219
 20
-32.2093
 11
2.62778
 21
-32.1836
  0
LINE
  8
0
 10
2.62778
 20
-32.1836
 11
2.54
 21
-32.175
  0
LINE
  8
0
 10
2.54
 20
-32.175
 11
2.4522
 21
-32.1836
  0
LINE
  8
0
 10
2.4522
 20
-32.1836
 11
2.36779
 21
-32.2093
  0
LINE
  8
0
 10
2.36779
 20
-32.2093
 11
2.28998
 21
-32.2508
  0
LINE
  8
0
 10
2.28998
 20
-32.2508
 11
2.22179
 21
-32.3068
  0
LINE
  8
0
 10
2.22179
 20
-32.3068
 11
2.16584
 21
-32.375
  0
LINE
  8
0
 10
2.16584
 20
-32.375
 11
2.12424
 21
-32.4528
  0
LINE
  8
0
 10
2.12424
 20
-32.4528
 11
2.09864
 21
-32.5372
  0
LINE
  8
0
 10
2.09864
 20
-32.5372
 11
2.08999
 21
-32.625
  0
LINE
  8
0
 10
2.08999
 20
-32.625
 11
2.09864
 21
-32.7128
  0
LINE
  8
0
 10
2.09864
 20
-32.7128
 11
2.12424
 21
-32.7972
  0
LINE
  8
0
 10
2.12424
 20
-32.7972
 11
2.16584
 21
-32.875
  0
LINE
  8
0
 10
2.16584
 20
-32.875
 11
2.22179
 21
-32.9432
  0
LINE
  8
0
 10
2.22179
 20
-32.9432
 11
2.28998
 21
-32.9992
  0
LINE
  8
0
 10
2.28998
 20
-32.9992
 11
2.36779
 21
-33.0408
  0
LINE
  8
0
 10
2.36779
 20
-33.0408
 11
2.4522
 21
-33.0664
  0
LINE
  8
0
 10
2.4522
 20
-33.0664
 11
2.54
 21
-33.075
  0
LINE
  8
0
 10
2.54
 20
-33.075
 11
2.62778
 21
-33.0664
  0
LINE
  8
0
 10
3.89779
 20
-33.0664
 11
3.9822
 21
-33.0408
  0
LINE
  8
0
 10
3.9822
 20
-33.0408
 11
4.06
 21
-32.9992
  0
LINE
  8
0
 10
4.06
 20
-32.9992
 11
4.1282
 21
-32.9432
  0
LINE
  8
0
 10
4.1282
 20
-32.9432
 11
4.18415
 21
-32.875
  0
LINE
  8
0
 10
4.18415
 20
-32.875
 11
4.22574
 21
-32.7972
  0
LINE
  8
0
 10
4.22574
 20
-32.7972
 11
4.25135
 21
-32.7128
  0
LINE
  8
0
 10
4.25135
 20
-32.7128
 11
4.25999
 21
-32.625
  0
LINE
  8
0
 10
4.25999
 20
-32.625
 11
4.25135
 21
-32.5372
  0
LINE
  8
0
 10
4.25135
 20
-32.5372
 11
4.22574
 21
-32.4528
  0
LINE
  8
0
 10
4.22574
 20
-32.4528
 11
4.18415
 21
-32.375
  0
LINE
  8
0
 10
4.18415
 20
-32.375
 11
4.1282
 21
-32.3068
  0
LINE
  8
0
 10
4.1282
 20
-32.3068
 11
4.06
 21
-32.2508
  0
LINE
  8
0
 10
4.06
 20
-32.2508
 11
3.9822
 21
-32.2093
  0
LINE
  8
0
 10
3.9822
 20
-32.2093
 11
3.89779
 21
-32.1836
  0
LINE
  8
0
 10
3.89779
 20
-32.1836
 11
3.80999
 21
-32.175
  0
LINE
  8
0
 10
3.80999
 20
-32.175
 11
3.7222
 21
-32.1836
  0
LINE
  8
0
 10
3.7222
 20
-32.1836
 11
3.63778
 21
-32.2093
  0
LINE
  8
0
 10
3.63778
 20
-32.2093
 11
3.55999
 21
-32.2508
  0
LINE
  8
0
 10
3.55999
 20
-32.2508
 11
3.4918
 21
-32.3068
  0
LINE
  8
0
 10
3.4918
 20
-32.3068
 11
3.43583
 21
-32.375
  0
LINE
  8
0
 10
3.43583
 20
-32.375
 11
3.39425
 21
-32.4528
  0
LINE
  8
0
 10
3.39425
 20
-32.4528
 11
3.36864
 21
-32.5372
  0
LINE
  8
0
 10
3.36864
 20
-32.5372
 11
3.35999
 21
-32.625
  0
LINE
  8
0
 10
3.35999
 20
-32.625
 11
3.36864
 21
-32.7128
  0
LINE
  8
0
 10
3.36864
 20
-32.7128
 11
3.39425
 21
-32.7972
  0
LINE
  8
0
 10
3.39425
 20
-32.7972
 11
3.43583
 21
-32.875
  0
LINE
  8
0
 10
3.43583
 20
-32.875
 11
3.4918
 21
-32.9432
  0
LINE
  8
0
 10
3.4918
 20
-32.9432
 11
3.55999
 21
-32.9992
  0
LINE
  8
0
 10
3.55999
 20
-32.9992
 11
3.63778
 21
-33.0408
  0
LINE
  8
0
 10
3.63778
 20
-33.0408
 11
3.7222
 21
-33.0664
  0
LINE
  8
0
 10
3.7222
 20
-33.0664
 11
3.80999
 21
-33.075
  0
LINE
  8
0
 10
3.80999
 20
-33.075
 11
3.89779
 21
-33.0664
  0
LINE
  8
0
 10
5.16778
 20
-33.0664
 11
5.2522
 21
-33.0408
  0
LINE
  8
0
 10
5.2522
 20
-33.0408
 11
5.32999
 21
-32.9992
  0
LINE
  8
0
 10
5.32999
 20
-32.9992
 11
5.39818
 21
-32.9432
  0
LINE
  8
0
 10
5.39818
 20
-32.9432
 11
5.45415
 21
-32.875
  0
LINE
  8
0
 10
5.45415
 20
-32.875
 11
5.49573
 21
-32.7972
  0
LINE
  8
0
 10
5.49573
 20
-32.7972
 11
5.52135
 21
-32.7128
  0
LINE
  8
0
 10
5.52135
 20
-32.7128
 11
5.52999
 21
-32.625
  0
LINE
  8
0
 10
5.52999
 20
-32.625
 11
5.52135
 21
-32.5372
  0
LINE
  8
0
 10
5.52135
 20
-32.5372
 11
5.49573
 21
-32.4528
  0
LINE
  8
0
 10
5.49573
 20
-32.4528
 11
5.45415
 21
-32.375
  0
LINE
  8
0
 10
5.45415
 20
-32.375
 11
5.39818
 21
-32.3068
  0
LINE
  8
0
 10
5.39818
 20
-32.3068
 11
5.32999
 21
-32.2508
  0
LINE
  8
0
 10
5.32999
 20
-32.2508
 11
5.2522
 21
-32.2093
  0
LINE
  8
0
 10
5.2522
 20
-32.2093
 11
5.16778
 21
-32.1836
  0
LINE
  8
0
 10
5.16778
 20
-32.1836
 11
5.07999
 21
-32.175
  0
LINE
  8
0
 10
5.07999
 20
-32.175
 11
4.99221
 21
-32.1836
  0
LINE
  8
0
 10
4.99221
 20
-32.1836
 11
4.90778
 21
-32.2093
  0
LINE
  8
0
 10
4.90778
 20
-32.2093
 11
4.82999
 21
-32.2508
  0
LINE
  8
0
 10
4.82999
 20
-32.2508
 11
4.7618
 21
-32.3068
  0
LINE
  8
0
 10
4.7618
 20
-32.3068
 11
4.70583
 21
-32.375
  0
LINE
  8
0
 10
4.70583
 20
-32.375
 11
4.66425
 21
-32.4528
  0
LINE
  8
0
 10
4.66425
 20
-32.4528
 11
4.63863
 21
-32.5372
  0
LINE
  8
0
 10
4.63863
 20
-32.5372
 11
4.63
 21
-32.625
  0
LINE
  8
0
 10
4.63
 20
-32.625
 11
4.63863
 21
-32.7128
  0
LINE
  8
0
 10
4.63863
 20
-32.7128
 11
4.66425
 21
-32.7972
  0
LINE
  8
0
 10
4.66425
 20
-32.7972
 11
4.70583
 21
-32.875
  0
LINE
  8
0
 10
4.70583
 20
-32.875
 11
4.7618
 21
-32.9432
  0
LINE
  8
0
 10
4.7618
 20
-32.9432
 11
4.82999
 21
-32.9992
  0
LINE
  8
0
 10
4.82999
 20
-32.9992
 11
4.90778
 21
-33.0408
  0
LINE
  8
0
 10
4.90778
 20
-33.0408
 11
4.99221
 21
-33.0664
  0
LINE
  8
0
 10
4.99221
 20
-33.0664
 11
5.07999
 21
-33.075
  0
LINE
  8
0
 10
5.07999
 20
-33.075
 11
5.16778
 21
-33.0664
  0
LINE
  8
0
 10
6.43778
 20
-33.0664
 11
6.52219
 21
-33.0408
  0
LINE
  8
0
 10
6.52219
 20
-33.0408
 11
6.6
 21
-32.9992
  0
LINE
  8
0
 10
6.6
 20
-32.9992
 11
6.66819
 21
-32.9432
  0
LINE
  8
0
 10
6.66819
 20
-32.9432
 11
6.72416
 21
-32.875
  0
LINE
  8
0
 10
6.72416
 20
-32.875
 11
6.76574
 21
-32.7972
  0
LINE
  8
0
 10
6.76574
 20
-32.7972
 11
6.79134
 21
-32.7128
  0
LINE
  8
0
 10
6.79134
 20
-32.7128
 11
6.79999
 21
-32.625
  0
LINE
  8
0
 10
6.79999
 20
-32.625
 11
6.79134
 21
-32.5372
  0
LINE
  8
0
 10
6.79134
 20
-32.5372
 11
6.76574
 21
-32.4528
  0
LINE
  8
0
 10
6.76574
 20
-32.4528
 11
6.72416
 21
-32.375
  0
LINE
  8
0
 10
6.72416
 20
-32.375
 11
6.66819
 21
-32.3068
  0
LINE
  8
0
 10
6.66819
 20
-32.3068
 11
6.6
 21
-32.2508
  0
LINE
  8
0
 10
6.6
 20
-32.2508
 11
6.52219
 21
-32.2093
  0
LINE
  8
0
 10
6.52219
 20
-32.2093
 11
6.43778
 21
-32.1836
  0
LINE
  8
0
 10
6.43778
 20
-32.1836
 11
6.35
 21
-32.175
  0
LINE
  8
0
 10
6.35
 20
-32.175
 11
6.2622
 21
-32.1836
  0
LINE
  8
0
 10
6.2622
 20
-32.1836
 11
6.17779
 21
-32.2093
  0
LINE
  8
0
 10
6.17779
 20
-32.2093
 11
6.09998
 21
-32.2508
  0
LINE
  8
0
 10
6.09998
 20
-32.2508
 11
6.03179
 21
-32.3068
  0
LINE
  8
0
 10
6.03179
 20
-32.3068
 11
5.97584
 21
-32.375
  0
LINE
  8
0
 10
5.97584
 20
-32.375
 11
5.93424
 21
-32.4528
  0
LINE
  8
0
 10
5.93424
 20
-32.4528
 11
5.90864
 21
-32.5372
  0
LINE
  8
0
 10
5.90864
 20
-32.5372
 11
5.9
 21
-32.625
  0
LINE
  8
0
 10
5.9
 20
-32.625
 11
5.90864
 21
-32.7128
  0
LINE
  8
0
 10
5.90864
 20
-32.7128
 11
5.93424
 21
-32.7972
  0
LINE
  8
0
 10
5.93424
 20
-32.7972
 11
5.97584
 21
-32.875
  0
LINE
  8
0
 10
5.97584
 20
-32.875
 11
6.03179
 21
-32.9432
  0
LINE
  8
0
 10
6.03179
 20
-32.9432
 11
6.09998
 21
-32.9992
  0
LINE
  8
0
 10
6.09998
 20
-32.9992
 11
6.17779
 21
-33.0408
  0
LINE
  8
0
 10
6.17779
 20
-33.0408
 11
6.2622
 21
-33.0664
  0
LINE
  8
0
 10
6.2622
 20
-33.0664
 11
6.35
 21
-33.075
  0
LINE
  8
0
 10
6.35
 20
-33.075
 11
6.43778
 21
-33.0664
  0
LINE
  8
0
 10
7.70779
 20
-33.0664
 11
7.7922
 21
-33.0408
  0
LINE
  8
0
 10
7.7922
 20
-33.0408
 11
7.87
 21
-32.9992
  0
LINE
  8
0
 10
7.87
 20
-32.9992
 11
7.93819
 21
-32.9432
  0
LINE
  8
0
 10
7.93819
 20
-32.9432
 11
7.99415
 21
-32.875
  0
LINE
  8
0
 10
7.99415
 20
-32.875
 11
8.03574
 21
-32.7972
  0
LINE
  8
0
 10
8.03574
 20
-32.7972
 11
8.06135
 21
-32.7128
  0
LINE
  8
0
 10
8.06135
 20
-32.7128
 11
8.07
 21
-32.625
  0
LINE
  8
0
 10
8.07
 20
-32.625
 11
8.06135
 21
-32.5372
  0
LINE
  8
0
 10
8.06135
 20
-32.5372
 11
8.03574
 21
-32.4528
  0
LINE
  8
0
 10
8.03574
 20
-32.4528
 11
7.99415
 21
-32.375
  0
LINE
  8
0
 10
7.99415
 20
-32.375
 11
7.93819
 21
-32.3068
  0
LINE
  8
0
 10
7.93819
 20
-32.3068
 11
7.87
 21
-32.2508
  0
LINE
  8
0
 10
7.87
 20
-32.2508
 11
7.7922
 21
-32.2093
  0
LINE
  8
0
 10
7.7922
 20
-32.2093
 11
7.70779
 21
-32.1836
  0
LINE
  8
0
 10
7.70779
 20
-32.1836
 11
7.61999
 21
-32.175
  0
LINE
  8
0
 10
7.61999
 20
-32.175
 11
7.5322
 21
-32.1836
  0
LINE
  8
0
 10
7.5322
 20
-32.1836
 11
7.44779
 21
-32.2093
  0
LINE
  8
0
 10
7.44779
 20
-32.2093
 11
7.36999
 21
-32.2508
  0
LINE
  8
0
 10
7.36999
 20
-32.2508
 11
7.30179
 21
-32.3068
  0
LINE
  8
0
 10
7.30179
 20
-32.3068
 11
7.24583
 21
-32.375
  0
LINE
  8
0
 10
7.24583
 20
-32.375
 11
7.20424
 21
-32.4528
  0
LINE
  8
0
 10
7.20424
 20
-32.4528
 11
7.17864
 21
-32.5372
  0
LINE
  8
0
 10
7.17864
 20
-32.5372
 11
7.16999
 21
-32.625
  0
LINE
  8
0
 10
7.16999
 20
-32.625
 11
7.17864
 21
-32.7128
  0
LINE
  8
0
 10
7.17864
 20
-32.7128
 11
7.20424
 21
-32.7972
  0
LINE
  8
0
 10
7.20424
 20
-32.7972
 11
7.24583
 21
-32.875
  0
LINE
  8
0
 10
7.24583
 20
-32.875
 11
7.30179
 21
-32.9432
  0
LINE
  8
0
 10
7.30179
 20
-32.9432
 11
7.36999
 21
-32.9992
  0
LINE
  8
0
 10
7.36999
 20
-32.9992
 11
7.44779
 21
-33.0408
  0
LINE
  8
0
 10
7.44779
 20
-33.0408
 11
7.5322
 21
-33.0664
  0
LINE
  8
0
 10
7.5322
 20
-33.0664
 11
7.61999
 21
-33.075
  0
LINE
  8
0
 10
7.61999
 20
-33.075
 11
7.70779
 21
-33.0664
  0
LINE
  8
0
 10
8.97779
 20
-33.0664
 11
9.0622
 21
-33.0408
  0
LINE
  8
0
 10
9.0622
 20
-33.0408
 11
9.14001
 21
-32.9992
  0
LINE
  8
0
 10
9.14001
 20
-32.9992
 11
9.2082
 21
-32.9432
  0
LINE
  8
0
 10
9.2082
 20
-32.9432
 11
9.26415
 21
-32.875
  0
LINE
  8
0
 10
9.26415
 20
-32.875
 11
9.30573
 21
-32.7972
  0
LINE
  8
0
 10
9.30573
 20
-32.7972
 11
9.33135
 21
-32.7128
  0
LINE
  8
0
 10
9.33135
 20
-32.7128
 11
9.33999
 21
-32.625
  0
LINE
  8
0
 10
9.33999
 20
-32.625
 11
9.33135
 21
-32.5372
  0
LINE
  8
0
 10
9.33135
 20
-32.5372
 11
9.30573
 21
-32.4528
  0
LINE
  8
0
 10
9.30573
 20
-32.4528
 11
9.26415
 21
-32.375
  0
LINE
  8
0
 10
9.26415
 20
-32.375
 11
9.2082
 21
-32.3068
  0
LINE
  8
0
 10
9.2082
 20
-32.3068
 11
9.14001
 21
-32.2508
  0
LINE
  8
0
 10
9.14001
 20
-32.2508
 11
9.0622
 21
-32.2093
  0
LINE
  8
0
 10
9.0622
 20
-32.2093
 11
8.97779
 21
-32.1836
  0
LINE
  8
0
 10
8.97779
 20
-32.1836
 11
8.88999
 21
-32.175
  0
LINE
  8
0
 10
8.88999
 20
-32.175
 11
8.80221
 21
-32.1836
  0
LINE
  8
0
 10
8.80221
 20
-32.1836
 11
8.71778
 21
-32.2093
  0
LINE
  8
0
 10
8.71778
 20
-32.2093
 11
8.63999
 21
-32.2508
  0
LINE
  8
0
 10
8.63999
 20
-32.2508
 11
8.5718
 21
-32.3068
  0
LINE
  8
0
 10
8.5718
 20
-32.3068
 11
8.51583
 21
-32.375
  0
LINE
  8
0
 10
8.51583
 20
-32.375
 11
8.47425
 21
-32.4528
  0
LINE
  8
0
 10
8.47425
 20
-32.4528
 11
8.44865
 21
-32.5372
  0
LINE
  8
0
 10
8.44865
 20
-32.5372
 11
8.43999
 21
-32.625
  0
LINE
  8
0
 10
8.43999
 20
-32.625
 11
8.44865
 21
-32.7128
  0
LINE
  8
0
 10
8.44865
 20
-32.7128
 11
8.47425
 21
-32.7972
  0
LINE
  8
0
 10
8.47425
 20
-32.7972
 11
8.51583
 21
-32.875
  0
LINE
  8
0
 10
8.51583
 20
-32.875
 11
8.5718
 21
-32.9432
  0
LINE
  8
0
 10
8.5718
 20
-32.9432
 11
8.63999
 21
-32.9992
  0
LINE
  8
0
 10
8.63999
 20
-32.9992
 11
8.71778
 21
-33.0408
  0
LINE
  8
0
 10
8.71778
 20
-33.0408
 11
8.80221
 21
-33.0664
  0
LINE
  8
0
 10
8.80221
 20
-33.0664
 11
8.88999
 21
-33.075
  0
LINE
  8
0
 10
8.88999
 20
-33.075
 11
8.97779
 21
-33.0664
  0
LINE
  8
0
 10
10.2478
 20
-33.0664
 11
10.3322
 21
-33.0408
  0
LINE
  8
0
 10
10.3322
 20
-33.0408
 11
10.41
 21
-32.9992
  0
LINE
  8
0
 10
10.41
 20
-32.9992
 11
10.4782
 21
-32.9432
  0
LINE
  8
0
 10
10.4782
 20
-32.9432
 11
10.5342
 21
-32.875
  0
LINE
  8
0
 10
10.5342
 20
-32.875
 11
10.5757
 21
-32.7972
  0
LINE
  8
0
 10
10.5757
 20
-32.7972
 11
10.6013
 21
-32.7128
  0
LINE
  8
0
 10
10.6013
 20
-32.7128
 11
10.61
 21
-32.625
  0
LINE
  8
0
 10
10.61
 20
-32.625
 11
10.6013
 21
-32.5372
  0
LINE
  8
0
 10
10.6013
 20
-32.5372
 11
10.5757
 21
-32.4528
  0
LINE
  8
0
 10
10.5757
 20
-32.4528
 11
10.5342
 21
-32.375
  0
LINE
  8
0
 10
10.5342
 20
-32.375
 11
10.4782
 21
-32.3068
  0
LINE
  8
0
 10
10.4782
 20
-32.3068
 11
10.41
 21
-32.2508
  0
LINE
  8
0
 10
10.41
 20
-32.2508
 11
10.3322
 21
-32.2093
  0
LINE
  8
0
 10
10.3322
 20
-32.2093
 11
10.2478
 21
-32.1836
  0
LINE
  8
0
 10
10.2478
 20
-32.1836
 11
10.16
 21
-32.175
  0
LINE
  8
0
 10
10.16
 20
-32.175
 11
10.0722
 21
-32.1836
  0
LINE
  8
0
 10
10.0722
 20
-32.1836
 11
9.98778
 21
-32.2093
  0
LINE
  8
0
 10
9.98778
 20
-32.2093
 11
9.90998
 21
-32.2508
  0
LINE
  8
0
 10
9.90998
 20
-32.2508
 11
9.84179
 21
-32.3068
  0
LINE
  8
0
 10
9.84179
 20
-32.3068
 11
9.78583
 21
-32.375
  0
LINE
  8
0
 10
9.78583
 20
-32.375
 11
9.74425
 21
-32.4528
  0
LINE
  8
0
 10
9.74425
 20
-32.4528
 11
9.71863
 21
-32.5372
  0
LINE
  8
0
 10
9.71863
 20
-32.5372
 11
9.71
 21
-32.625
  0
LINE
  8
0
 10
9.71
 20
-32.625
 11
9.71863
 21
-32.7128
  0
LINE
  8
0
 10
9.71863
 20
-32.7128
 11
9.74425
 21
-32.7972
  0
LINE
  8
0
 10
9.74425
 20
-32.7972
 11
9.78583
 21
-32.875
  0
LINE
  8
0
 10
9.78583
 20
-32.875
 11
9.84179
 21
-32.9432
  0
LINE
  8
0
 10
9.84179
 20
-32.9432
 11
9.90998
 21
-32.9992
  0
LINE
  8
0
 10
9.90998
 20
-32.9992
 11
9.98778
 21
-33.0408
  0
LINE
  8
0
 10
9.98778
 20
-33.0408
 11
10.0722
 21
-33.0664
  0
LINE
  8
0
 10
10.0722
 20
-33.0664
 11
10.16
 21
-33.075
  0
LINE
  8
0
 10
10.16
 20
-33.075
 11
10.2478
 21
-33.0664
  0
LINE
  8
0
 10
11.5178
 20
-33.0664
 11
11.6022
 21
-33.0408
  0
LINE
  8
0
 10
11.6022
 20
-33.0408
 11
11.68
 21
-32.9992
  0
LINE
  8
0
 10
11.68
 20
-32.9992
 11
11.7482
 21
-32.9432
  0
LINE
  8
0
 10
11.7482
 20
-32.9432
 11
11.8042
 21
-32.875
  0
LINE
  8
0
 10
11.8042
 20
-32.875
 11
11.8457
 21
-32.7972
  0
LINE
  8
0
 10
11.8457
 20
-32.7972
 11
11.8713
 21
-32.7128
  0
LINE
  8
0
 10
11.8713
 20
-32.7128
 11
11.88
 21
-32.625
  0
LINE
  8
0
 10
11.88
 20
-32.625
 11
11.8713
 21
-32.5372
  0
LINE
  8
0
 10
11.8713
 20
-32.5372
 11
11.8457
 21
-32.4528
  0
LINE
  8
0
 10
11.8457
 20
-32.4528
 11
11.8042
 21
-32.375
  0
LINE
  8
0
 10
11.8042
 20
-32.375
 11
11.7482
 21
-32.3068
  0
LINE
  8
0
 10
11.7482
 20
-32.3068
 11
11.68
 21
-32.2508
  0
LINE
  8
0
 10
11.68
 20
-32.2508
 11
11.6022
 21
-32.2093
  0
LINE
  8
0
 10
11.6022
 20
-32.2093
 11
11.5178
 21
-32.1836
  0
LINE
  8
0
 10
11.5178
 20
-32.1836
 11
11.43
 21
-32.175
  0
LINE
  8
0
 10
11.43
 20
-32.175
 11
11.3422
 21
-32.1836
  0
LINE
  8
0
 10
11.3422
 20
-32.1836
 11
11.2578
 21
-32.2093
  0
LINE
  8
0
 10
11.2578
 20
-32.2093
 11
11.18
 21
-32.2508
  0
LINE
  8
0
 10
11.18
 20
-32.2508
 11
11.1118
 21
-32.3068
  0
LINE
  8
0
 10
11.1118
 20
-32.3068
 11
11.0558
 21
-32.375
  0
LINE
  8
0
 10
11.0558
 20
-32.375
 11
11.0142
 21
-32.4528
  0
LINE
  8
0
 10
11.0142
 20
-32.4528
 11
10.9886
 21
-32.5372
  0
LINE
  8
0
 10
10.9886
 20
-32.5372
 11
10.98
 21
-32.625
  0
LINE
  8
0
 10
10.98
 20
-32.625
 11
10.9886
 21
-32.7128
  0
LINE
  8
0
 10
10.9886
 20
-32.7128
 11
11.0142
 21
-32.7972
  0
LINE
  8
0
 10
11.0142
 20
-32.7972
 11
11.0558
 21
-32.875
  0
LINE
  8
0
 10
11.0558
 20
-32.875
 11
11.1118
 21
-32.9432
  0
LINE
  8
0
 10
11.1118
 20
-32.9432
 11
11.18
 21
-32.9992
  0
LINE
  8
0
 10
11.18
 20
-32.9992
 11
11.2578
 21
-33.0408
  0
LINE
  8
0
 10
11.2578
 20
-33.0408
 11
11.3422
 21
-33.0664
  0
LINE
  8
0
 10
11.3422
 20
-33.0664
 11
11.43
 21
-33.075
  0
LINE
  8
0
 10
11.43
 20
-33.075
 11
11.5178
 21
-33.0664
  0
ENDSEC
  0
SECTION
  2
OBJECTS
  0
DICTIONARY
  0
ENDSEC
  0
EOF
